<svg id="footer_logo" data-name="footer logo" xmlns="http://www.w3.org/2000/svg" width="373.089" height="86.592" viewBox="0 0 373.089 86.592">
  <g id="Tehuentec_footer" data-name="Tehuentec footer">
    <path id="Trazado_21870" data-name="Trazado 21870" d="M11.367,320.089h-3.9v7.183a1.733,1.733,0,0,0,.448,1.315,2.076,2.076,0,0,0,1.315.47,19.5,19.5,0,0,0,2.139-.014v4.039q-4.6.52-6.475-.867t-1.886-4.936V320.1H0v-4.285H3.006v-5.037l4.459-1.344v6.381h3.9V320.1Z" transform="translate(0 -263.638)" fill="#fafafa"/>
    <path id="Trazado_21871" data-name="Trazado 21871" d="M22.876,325.074h8.809a4.191,4.191,0,0,0-1.568-2.623,4.484,4.484,0,0,0-2.71-.86,4.654,4.654,0,0,0-2.97.918,4.371,4.371,0,0,0-1.554,2.573m.065,3.447c.6,2.168,2.226,3.245,4.87,3.245a4.556,4.556,0,0,0,3.866-1.727l3.591,2.074a8.569,8.569,0,0,1-7.53,3.7,9.292,9.292,0,0,1-6.872-2.594A9.111,9.111,0,0,1,27.4,317.58a8.241,8.241,0,0,1,6.272,2.623,9.114,9.114,0,0,1,2.471,6.5,10.33,10.33,0,0,1-.173,1.828H22.948Z" transform="translate(-5.07 -265.898)" fill="#fafafa"/>
    <path id="Trazado_21872" data-name="Trazado 21872" d="M56.466,315.114a6.274,6.274,0,0,1,4.683,1.9A7.215,7.215,0,0,1,63,322.261v10.608H58.54V322.817a3.555,3.555,0,0,0-.932-2.645,3.413,3.413,0,0,0-2.486-.918,3.679,3.679,0,0,0-2.76,1.07,4.446,4.446,0,0,0-1.033,3.216v9.329H46.87V308.69h4.459v8.845a5.755,5.755,0,0,1,5.145-2.421" transform="translate(-13.001 -263.432)" fill="#fafafa"/>
    <path id="Trazado_21873" data-name="Trazado 21873" d="M85.388,318.247h4.459v17.271H85.388v-1.937A5.755,5.755,0,0,1,80.243,336a6.274,6.274,0,0,1-4.683-1.9,7.221,7.221,0,0,1-1.85-5.253v-10.6h4.459V328.3a3.526,3.526,0,0,0,.932,2.638,3.383,3.383,0,0,0,2.486.918,3.652,3.652,0,0,0,2.76-1.069,4.446,4.446,0,0,0,1.033-3.216V318.24Z" transform="translate(-20.446 -266.081)" fill="#fafafa"/>
    <path id="Trazado_21874" data-name="Trazado 21874" d="M104.539,325.074h8.809a4.191,4.191,0,0,0-1.568-2.623,4.484,4.484,0,0,0-2.71-.86,4.654,4.654,0,0,0-2.97.918,4.371,4.371,0,0,0-1.554,2.573m.065,3.447c.6,2.168,2.226,3.245,4.87,3.245a4.556,4.556,0,0,0,3.866-1.727l3.591,2.074a8.569,8.569,0,0,1-7.53,3.7,9.292,9.292,0,0,1-6.872-2.594,9.114,9.114,0,0,1,6.533-15.645,8.241,8.241,0,0,1,6.272,2.623,9.114,9.114,0,0,1,2.471,6.5,10.331,10.331,0,0,1-.173,1.828H104.618Z" transform="translate(-27.724 -265.898)" fill="#fafafa"/>
    <path id="Trazado_21875" data-name="Trazado 21875" d="M138.126,317.58a6.274,6.274,0,0,1,4.683,1.9,7.233,7.233,0,0,1,1.85,5.253v10.608H140.2V325.29a3.555,3.555,0,0,0-.932-2.645,3.413,3.413,0,0,0-2.486-.918,3.679,3.679,0,0,0-2.76,1.069,4.446,4.446,0,0,0-1.033,3.216v9.329H128.53V318.072h4.459v1.937a5.755,5.755,0,0,1,5.145-2.421" transform="translate(-35.652 -265.898)" fill="#fafafa"/>
    <path id="Trazado_21876" data-name="Trazado 21876" d="M164.64,320.682h-3.9v7.183a1.733,1.733,0,0,0,.448,1.315,2.077,2.077,0,0,0,1.315.47,19.516,19.516,0,0,0,2.139-.015v4.039q-4.6.52-6.475-.867c-1.257-.918-1.879-2.565-1.879-4.935V320.69H153.28V316.4h3.006v-3.49l4.459-1.344V316.4h3.9v4.285Z" transform="translate(-42.517 -264.231)" fill="#fafafa"/>
    <path id="Trazado_21877" data-name="Trazado 21877" d="M176.159,325.074h8.809a4.16,4.16,0,0,0-1.568-2.623,4.484,4.484,0,0,0-2.71-.86,4.654,4.654,0,0,0-2.97.918,4.371,4.371,0,0,0-1.554,2.573m.065,3.447c.6,2.168,2.226,3.245,4.87,3.245a4.556,4.556,0,0,0,3.866-1.727l3.591,2.074a8.569,8.569,0,0,1-7.53,3.7,9.292,9.292,0,0,1-6.872-2.594,9.114,9.114,0,0,1,6.532-15.645,8.252,8.252,0,0,1,6.272,2.623,9.114,9.114,0,0,1,2.471,6.5,10.329,10.329,0,0,1-.173,1.828H176.238Z" transform="translate(-47.59 -265.898)" fill="#fafafa"/>
    <path id="Trazado_21878" data-name="Trazado 21878" d="M207.86,335.819a9.12,9.12,0,1,1,0-18.239,8.983,8.983,0,0,1,4.6,1.207,8.074,8.074,0,0,1,3.143,3.245l-3.837,2.247a3.867,3.867,0,0,0-1.575-1.691,4.579,4.579,0,0,0-2.363-.621,4.454,4.454,0,0,0-3.317,1.329,4.653,4.653,0,0,0-1.315,3.4,4.569,4.569,0,0,0,1.315,3.367,4.454,4.454,0,0,0,3.317,1.33,4.717,4.717,0,0,0,2.4-.607,3.778,3.778,0,0,0,1.568-1.676l3.866,2.211a8.643,8.643,0,0,1-3.208,3.266,8.86,8.86,0,0,1-4.6,1.228" transform="translate(-55.126 -265.898)" fill="#fafafa"/>
    <path id="Trazado_21879" data-name="Trazado 21879" d="M101.659,286.718a7.938,7.938,0,1,1,7.934-7.942h0a7.935,7.935,0,0,1-7.934,7.942m0-19.908a11.977,11.977,0,1,0,.022,0Z" transform="translate(-24.881 -251.816)" fill="#fafafa"/>
    <path id="Trazado_21880" data-name="Trazado 21880" d="M120.764,270.522a1.688,1.688,0,0,1-2.081-.91,15.777,15.777,0,0,0-17.6-9.112,1.727,1.727,0,0,1-2.016-1.156l-.051-.166a1.715,1.715,0,0,1,1.3-2.19,19.38,19.38,0,0,1,21.628,11.143,1.722,1.722,0,0,1-1.019,2.341Z" transform="translate(-27.444 -248.981)" fill="#fafafa"/>
    <path id="Trazado_21881" data-name="Trazado 21881" d="M127.239,265.527a1.7,1.7,0,0,1-2.1-1.026A23.419,23.419,0,0,0,97.952,250.28a1.706,1.706,0,0,1-2.031-1.149l-.051-.166a1.7,1.7,0,0,1,1.214-2.168,26.986,26.986,0,0,1,22.38,4.6,27.239,27.239,0,0,1,9.026,11.844,1.7,1.7,0,0,1-1.091,2.226l-.166.05Z" transform="translate(-26.571 -246.06)" fill="#fafafa"/>
    <rect id="Rectángulo_1983" data-name="Rectángulo 1983" width="1.431" height="7.681" transform="translate(4.126 76.995)" fill="#fafafa"/>
    <path id="Trazado_21882" data-name="Trazado 21882" d="M10.12,361.118V355.67h.8a.315.315,0,0,1,.332.238l.094.434a2.8,2.8,0,0,1,.347-.311,2.388,2.388,0,0,1,.383-.239,2.1,2.1,0,0,1,.441-.152,2.284,2.284,0,0,1,.513-.051,1.976,1.976,0,0,1,.795.152,1.629,1.629,0,0,1,.578.426,1.916,1.916,0,0,1,.354.658,2.8,2.8,0,0,1,.116.838v3.469H13.56v-3.469a1.175,1.175,0,0,0-.231-.773.857.857,0,0,0-.694-.275,1.375,1.375,0,0,0-.636.152,2.327,2.327,0,0,0-.564.419v3.938H10.12Z" transform="translate(-2.807 -276.442)" fill="#fafafa"/>
    <path id="Trazado_21883" data-name="Trazado 21883" d="M20.221,360.592a1.423,1.423,0,0,1-1.091-.4,1.546,1.546,0,0,1-.383-1.106v-3.042H18.19a.27.27,0,0,1-.181-.072.278.278,0,0,1-.079-.21v-.52l.874-.145.275-1.489a.284.284,0,0,1,.1-.166.329.329,0,0,1,.2-.058h.679v1.713h1.431v.939H20.055v2.948a.56.56,0,0,0,.13.4.436.436,0,0,0,.34.145.543.543,0,0,0,.2-.029.877.877,0,0,0,.145-.065c.043-.022.079-.043.108-.058a.159.159,0,0,1,.094-.029.133.133,0,0,1,.094.029,1.036,1.036,0,0,1,.079.087l.39.636a1.944,1.944,0,0,1-.658.361,2.516,2.516,0,0,1-.773.123" transform="translate(-4.973 -275.828)" fill="#fafafa"/>
    <path id="Trazado_21884" data-name="Trazado 21884" d="M26.6,356.524a1.2,1.2,0,0,0-.9.325,1.573,1.573,0,0,0-.412.918h2.464a1.743,1.743,0,0,0-.065-.484,1.116,1.116,0,0,0-.217-.4,1.049,1.049,0,0,0-.361-.267,1.216,1.216,0,0,0-.506-.094m-.029-.947a2.656,2.656,0,0,1,.947.159,1.983,1.983,0,0,1,.744.484,2.284,2.284,0,0,1,.491.773,2.949,2.949,0,0,1,.173,1.048,1.21,1.21,0,0,1-.014.246.29.29,0,0,1-.051.152.2.2,0,0,1-.094.08.407.407,0,0,1-.145.022H25.261a1.828,1.828,0,0,0,.455,1.229,1.407,1.407,0,0,0,1.041.39,1.771,1.771,0,0,0,.549-.072,2.346,2.346,0,0,0,.4-.166c.116-.058.217-.116.3-.166a.5.5,0,0,1,.253-.072.218.218,0,0,1,.137.036.382.382,0,0,1,.1.087l.383.477a2.293,2.293,0,0,1-.491.426,2.538,2.538,0,0,1-.564.275,3.444,3.444,0,0,1-.6.145,4.159,4.159,0,0,1-.593.043,2.941,2.941,0,0,1-1.055-.188,2.391,2.391,0,0,1-.853-.556,2.54,2.54,0,0,1-.571-.91,3.531,3.531,0,0,1-.2-1.257,2.929,2.929,0,0,1,.181-1.048,2.473,2.473,0,0,1,1.337-1.431,2.684,2.684,0,0,1,1.1-.21" transform="translate(-6.646 -276.436)" fill="#fafafa"/>
    <rect id="Rectángulo_1984" data-name="Rectángulo 1984" width="1.315" height="7.891" transform="translate(23.543 76.786)" fill="#fafafa"/>
    <path id="Trazado_21885" data-name="Trazado 21885" d="M37.954,360.217H36.646v-5.449h1.308Zm.2-7.038a.685.685,0,0,1-.072.318.84.84,0,0,1-.181.26.969.969,0,0,1-.267.181A.825.825,0,0,1,37.3,354a.806.806,0,0,1-.318-.065.733.733,0,0,1-.26-.181.983.983,0,0,1-.181-.26.783.783,0,0,1-.065-.318.852.852,0,0,1,.065-.332.832.832,0,0,1,.181-.267.818.818,0,0,1,.26-.173.807.807,0,0,1,.318-.065.826.826,0,0,1,.332.065.943.943,0,0,1,.267.173.832.832,0,0,1,.181.267.744.744,0,0,1,.072.332" transform="translate(-10.119 -275.54)" fill="#fafafa"/>
    <path id="Trazado_21886" data-name="Trazado 21886" d="M42.406,358.258a1.289,1.289,0,0,0,.426-.065.8.8,0,0,0,.3-.188.727.727,0,0,0,.181-.282.973.973,0,0,0,.058-.361.85.85,0,0,0-.246-.643,1.215,1.215,0,0,0-1.445,0,.866.866,0,0,0-.246.643,1.1,1.1,0,0,0,.058.354.727.727,0,0,0,.181.282.8.8,0,0,0,.3.188,1.246,1.246,0,0,0,.419.065m1.445,3.093a.415.415,0,0,0-.094-.267.662.662,0,0,0-.26-.159,2.335,2.335,0,0,0-.383-.087,3.277,3.277,0,0,0-.47-.029h-.513a2.308,2.308,0,0,1-.506-.058,1.224,1.224,0,0,0-.361.289.58.58,0,0,0-.137.383.5.5,0,0,0,.072.267.613.613,0,0,0,.231.217,1.262,1.262,0,0,0,.4.137,2.963,2.963,0,0,0,.614.051,3.113,3.113,0,0,0,.629-.058,1.491,1.491,0,0,0,.441-.159.624.624,0,0,0,.253-.238.634.634,0,0,0,.079-.3m-1.438-5.759a2.737,2.737,0,0,1,.658.072,2.391,2.391,0,0,1,.564.21H45.2v.491a.258.258,0,0,1-.065.188.337.337,0,0,1-.217.094l-.491.094a1.314,1.314,0,0,1,.079.289,1.556,1.556,0,0,1,.029.325,1.615,1.615,0,0,1-.159.73,1.677,1.677,0,0,1-.448.556,2.2,2.2,0,0,1-.672.354,2.881,2.881,0,0,1-.845.123,3.305,3.305,0,0,1-.6-.058.428.428,0,0,0-.253.347.268.268,0,0,0,.152.246,1.248,1.248,0,0,0,.4.108,4.332,4.332,0,0,0,.564.036c.21,0,.426.007.643.029a4.752,4.752,0,0,1,.643.094,1.82,1.82,0,0,1,.556.21,1.142,1.142,0,0,1,.4.39,1.2,1.2,0,0,1,.152.636,1.524,1.524,0,0,1-.173.7,1.859,1.859,0,0,1-.513.607,2.606,2.606,0,0,1-.824.426,3.537,3.537,0,0,1-1.113.159,4.312,4.312,0,0,1-1.077-.116,2.634,2.634,0,0,1-.759-.318,1.361,1.361,0,0,1-.448-.463A1.061,1.061,0,0,1,40,361.59a.948.948,0,0,1,.231-.643,1.529,1.529,0,0,1,.65-.412.857.857,0,0,1-.325-.3.89.89,0,0,1-.123-.484.809.809,0,0,1,.043-.253.935.935,0,0,1,.13-.253,1.32,1.32,0,0,1,.217-.238,1.353,1.353,0,0,1,.311-.2,1.779,1.779,0,0,1-.65-.593,1.577,1.577,0,0,1-.238-.867,1.615,1.615,0,0,1,.159-.73,1.673,1.673,0,0,1,.448-.556,2.057,2.057,0,0,1,.686-.354,2.993,2.993,0,0,1,.867-.123" transform="translate(-11.095 -276.436)" fill="#fafafa"/>
    <path id="Trazado_21887" data-name="Trazado 21887" d="M50.615,356.524a1.2,1.2,0,0,0-.9.325,1.573,1.573,0,0,0-.412.918h2.464a1.743,1.743,0,0,0-.065-.484,1.116,1.116,0,0,0-.217-.4,1.049,1.049,0,0,0-.361-.267,1.216,1.216,0,0,0-.506-.094m-.036-.947a2.656,2.656,0,0,1,.947.159,1.982,1.982,0,0,1,.744.484,2.284,2.284,0,0,1,.491.773,2.949,2.949,0,0,1,.173,1.048,1.21,1.21,0,0,1-.014.246.29.29,0,0,1-.051.152.2.2,0,0,1-.094.08.407.407,0,0,1-.145.022H49.271a1.828,1.828,0,0,0,.455,1.229,1.407,1.407,0,0,0,1.041.39,1.74,1.74,0,0,0,.549-.072,2.346,2.346,0,0,0,.4-.166c.116-.058.217-.116.3-.166a.5.5,0,0,1,.253-.072.218.218,0,0,1,.137.036.382.382,0,0,1,.1.087l.383.477a2.292,2.292,0,0,1-.491.426,2.538,2.538,0,0,1-.564.275,3.444,3.444,0,0,1-.6.145,4.159,4.159,0,0,1-.593.043,2.942,2.942,0,0,1-1.055-.188,2.391,2.391,0,0,1-.853-.556,2.54,2.54,0,0,1-.571-.91,3.531,3.531,0,0,1-.2-1.257,2.929,2.929,0,0,1,.181-1.048,2.538,2.538,0,0,1,.513-.853,2.424,2.424,0,0,1,.824-.578,2.684,2.684,0,0,1,1.1-.21" transform="translate(-13.306 -276.436)" fill="#fafafa"/>
    <path id="Trazado_21888" data-name="Trazado 21888" d="M56.48,361.118V355.67h.8a.315.315,0,0,1,.332.238l.094.434a2.8,2.8,0,0,1,.347-.311,2.388,2.388,0,0,1,.383-.239,2.1,2.1,0,0,1,.441-.152,2.284,2.284,0,0,1,.513-.051,1.976,1.976,0,0,1,.795.152,1.63,1.63,0,0,1,.578.426,1.789,1.789,0,0,1,.347.658,2.8,2.8,0,0,1,.116.838v3.469H59.92v-3.469a1.175,1.175,0,0,0-.231-.773.857.857,0,0,0-.694-.275,1.375,1.375,0,0,0-.636.152,2.327,2.327,0,0,0-.564.419v3.938H56.48Z" transform="translate(-15.666 -276.442)" fill="#fafafa"/>
    <path id="Trazado_21889" data-name="Trazado 21889" d="M68.666,356.813a.58.58,0,0,1-.116.116.259.259,0,0,1-.159.043.4.4,0,0,1-.2-.058c-.065-.043-.137-.087-.231-.137a1.449,1.449,0,0,0-.318-.137,1.4,1.4,0,0,0-.455-.058,1.444,1.444,0,0,0-.607.123,1.164,1.164,0,0,0-.434.361,1.623,1.623,0,0,0-.26.564,2.983,2.983,0,0,0-.087.752,2.834,2.834,0,0,0,.094.773,1.609,1.609,0,0,0,.267.571,1.162,1.162,0,0,0,.426.347,1.289,1.289,0,0,0,.564.116,1.259,1.259,0,0,0,.506-.079,1.373,1.373,0,0,0,.325-.173c.087-.065.166-.123.231-.166a.349.349,0,0,1,.217-.079.273.273,0,0,1,.238.123l.376.477a2.589,2.589,0,0,1-.47.426,2.3,2.3,0,0,1-.528.275,2.935,2.935,0,0,1-.564.144,3.958,3.958,0,0,1-.578.043,2.494,2.494,0,0,1-.954-.188,2.165,2.165,0,0,1-.773-.549,2.606,2.606,0,0,1-.528-.882,3.382,3.382,0,0,1-.2-1.192,3.454,3.454,0,0,1,.173-1.113,2.69,2.69,0,0,1,.506-.889,2.308,2.308,0,0,1,.831-.585,2.81,2.81,0,0,1,1.134-.21,2.717,2.717,0,0,1,1.069.2,2.617,2.617,0,0,1,.824.564l-.347.477Z" transform="translate(-17.88 -276.436)" fill="#fafafa"/>
    <path id="Trazado_21890" data-name="Trazado 21890" d="M73.5,360.217H72.189v-5.449H73.5Zm.2-7.038a.685.685,0,0,1-.072.318.841.841,0,0,1-.181.26.969.969,0,0,1-.267.181.825.825,0,0,1-.332.065.756.756,0,0,1-.318-.065.733.733,0,0,1-.26-.181.822.822,0,0,1-.173-.26.782.782,0,0,1-.065-.318.851.851,0,0,1,.065-.332.945.945,0,0,1,.173-.267.907.907,0,0,1,.26-.173.807.807,0,0,1,.318-.065.906.906,0,0,1,.332.065.852.852,0,0,1,.267.173.832.832,0,0,1,.181.267.857.857,0,0,1,.072.332" transform="translate(-19.98 -275.54)" fill="#fafafa"/>
    <path id="Trazado_21891" data-name="Trazado 21891" d="M77.887,360.293a2.075,2.075,0,0,0,.376-.036,1.178,1.178,0,0,0,.318-.108,1.49,1.49,0,0,0,.289-.181,2.231,2.231,0,0,0,.282-.253V358.8a5.164,5.164,0,0,0-.961.072,2.643,2.643,0,0,0-.614.181.859.859,0,0,0-.332.26.6.6,0,0,0-.1.325.577.577,0,0,0,.2.5.869.869,0,0,0,.535.152m2.558.817h-.593a.64.64,0,0,1-.289-.058.363.363,0,0,1-.159-.224l-.116-.383a4.967,4.967,0,0,1-.4.325,2.353,2.353,0,0,1-.412.239,2.239,2.239,0,0,1-.455.145,2.916,2.916,0,0,1-.528.051,1.988,1.988,0,0,1-.636-.094,1.5,1.5,0,0,1-.506-.282,1.192,1.192,0,0,1-.325-.462,1.647,1.647,0,0,1-.116-.643,1.229,1.229,0,0,1,.166-.614,1.467,1.467,0,0,1,.535-.542,3.575,3.575,0,0,1,1-.4A6.345,6.345,0,0,1,79.159,358v-.318a1.224,1.224,0,0,0-.231-.817.826.826,0,0,0-.672-.267,1.574,1.574,0,0,0-.527.072,2.231,2.231,0,0,0-.369.166l-.289.166a.572.572,0,0,1-.289.072.367.367,0,0,1-.231-.072.475.475,0,0,1-.152-.166l-.238-.419a3.252,3.252,0,0,1,2.269-.86,2.111,2.111,0,0,1,.853.159,1.779,1.779,0,0,1,.636.434,1.986,1.986,0,0,1,.4.665,2.483,2.483,0,0,1,.137.853v3.44Z" transform="translate(-21.053 -276.433)" fill="#fafafa"/>
    <path id="Trazado_21892" data-name="Trazado 21892" d="M89.232,356.524a1.207,1.207,0,0,0-.9.325,1.573,1.573,0,0,0-.412.918h2.464a1.743,1.743,0,0,0-.065-.484,1.015,1.015,0,0,0-.217-.4,1.048,1.048,0,0,0-.361-.267,1.251,1.251,0,0,0-.513-.094m-.029-.947a2.656,2.656,0,0,1,.947.159,1.983,1.983,0,0,1,.744.484,2.164,2.164,0,0,1,.484.773,2.948,2.948,0,0,1,.173,1.048,1.208,1.208,0,0,1-.014.246.29.29,0,0,1-.051.152.171.171,0,0,1-.094.08.424.424,0,0,1-.152.022H87.874a1.828,1.828,0,0,0,.455,1.229,1.407,1.407,0,0,0,1.041.39,1.771,1.771,0,0,0,.549-.072,2.348,2.348,0,0,0,.4-.166c.116-.058.217-.116.3-.166a.5.5,0,0,1,.253-.072.218.218,0,0,1,.137.036.382.382,0,0,1,.1.087l.383.477a2.257,2.257,0,0,1-.484.426,2.539,2.539,0,0,1-.564.275,3.444,3.444,0,0,1-.6.145,4.236,4.236,0,0,1-.593.043,2.971,2.971,0,0,1-1.055-.188,2.3,2.3,0,0,1-.845-.556,2.643,2.643,0,0,1-.571-.91,3.526,3.526,0,0,1-.21-1.257,2.929,2.929,0,0,1,.181-1.048A2.456,2.456,0,0,1,88.1,355.78a2.661,2.661,0,0,1,1.1-.21" transform="translate(-24.016 -276.436)" fill="#fafafa"/>
    <path id="Trazado_21893" data-name="Trazado 21893" d="M95.09,361.118V355.67h.8a.315.315,0,0,1,.332.238l.094.434a2.8,2.8,0,0,1,.347-.311,2.387,2.387,0,0,1,.383-.239,2.1,2.1,0,0,1,.441-.152A2.284,2.284,0,0,1,98,355.59a1.976,1.976,0,0,1,.795.152,1.629,1.629,0,0,1,.578.426,1.916,1.916,0,0,1,.354.658,2.8,2.8,0,0,1,.116.838v3.469H98.53v-3.469a1.175,1.175,0,0,0-.231-.773.857.857,0,0,0-.694-.275,1.375,1.375,0,0,0-.636.152,2.326,2.326,0,0,0-.564.419v3.938H95.09Z" transform="translate(-26.376 -276.442)" fill="#fafafa"/>
    <path id="Trazado_21894" data-name="Trazado 21894" d="M110.708,357.459l.152.369c.051-.13.1-.253.152-.376a3.317,3.317,0,0,1,.173-.361l2.276-4.256a1.01,1.01,0,0,1,.087-.13.3.3,0,0,1,.1-.065.616.616,0,0,1,.123-.029h1.243v7.681h-1.257v-4.957c0-.094,0-.188.007-.3s.014-.224.022-.332l-2.32,4.357a.591.591,0,0,1-.21.231.507.507,0,0,1-.3.079h-.2a.567.567,0,0,1-.3-.079.574.574,0,0,1-.2-.231l-2.356-4.372c.014.123.022.231.029.347s.007.217.007.311V360.3H106.69v-7.681h1.243a.341.341,0,0,1,.123.029.3.3,0,0,1,.1.065.464.464,0,0,1,.094.13l2.3,4.263c.058.116.116.231.166.354" transform="translate(-29.594 -275.615)" fill="#fafafa"/>
    <path id="Trazado_21895" data-name="Trazado 21895" d="M122.017,360.293a2.076,2.076,0,0,0,.376-.036,1.179,1.179,0,0,0,.318-.108,1.746,1.746,0,0,0,.289-.181,2.235,2.235,0,0,0,.282-.253V358.8a5.164,5.164,0,0,0-.961.072,2.833,2.833,0,0,0-.621.181.918.918,0,0,0-.332.26.6.6,0,0,0-.1.325.577.577,0,0,0,.2.5.869.869,0,0,0,.535.152m2.565.817h-.593a.619.619,0,0,1-.289-.058.362.362,0,0,1-.159-.224l-.116-.383a4.96,4.96,0,0,1-.4.325,2.354,2.354,0,0,1-.412.239,2.24,2.24,0,0,1-.455.145,2.917,2.917,0,0,1-.528.051,1.988,1.988,0,0,1-.636-.094,1.5,1.5,0,0,1-.506-.282,1.273,1.273,0,0,1-.325-.462,1.647,1.647,0,0,1-.116-.643,1.3,1.3,0,0,1,.159-.614,1.525,1.525,0,0,1,.535-.542,3.575,3.575,0,0,1,1-.4,6.345,6.345,0,0,1,1.554-.159v-.318a1.224,1.224,0,0,0-.231-.817.826.826,0,0,0-.672-.267,1.574,1.574,0,0,0-.527.072,2.23,2.23,0,0,0-.369.166l-.289.166a.572.572,0,0,1-.289.072.367.367,0,0,1-.231-.072.474.474,0,0,1-.152-.166l-.238-.419a3.252,3.252,0,0,1,2.269-.86,2.111,2.111,0,0,1,.853.159,1.779,1.779,0,0,1,.636.434,1.986,1.986,0,0,1,.4.665,2.484,2.484,0,0,1,.137.853v3.44Z" transform="translate(-33.294 -276.433)" fill="#fafafa"/>
    <path id="Trazado_21896" data-name="Trazado 21896" d="M128.237,361.11v-5.449H129a.4.4,0,0,1,.282.072.46.46,0,0,1,.108.253l.079.658a2.579,2.579,0,0,1,.686-.795,1.434,1.434,0,0,1,.882-.289,1.117,1.117,0,0,1,.672.188l-.173.983a.166.166,0,0,1-.072.13.215.215,0,0,1-.145.043,1.1,1.1,0,0,1-.217-.036,1.317,1.317,0,0,0-.369-.036,1.143,1.143,0,0,0-.7.224,1.805,1.805,0,0,0-.5.665v3.4H128.23Z" transform="translate(-35.568 -276.433)" fill="#fafafa"/>
    <path id="Trazado_21897" data-name="Trazado 21897" d="M135.728,352.32v4.516h.246a.547.547,0,0,0,.21-.036.519.519,0,0,0,.159-.137l1.359-1.669a.663.663,0,0,1,.188-.166.474.474,0,0,1,.267-.058h1.2l-1.7,2.023a1.269,1.269,0,0,1-.188.2,1.072,1.072,0,0,1-.21.159.691.691,0,0,1,.2.188c.058.072.116.144.173.231l1.814,2.645h-1.185a.693.693,0,0,1-.26-.051.447.447,0,0,1-.188-.181l-1.387-2.067a.413.413,0,0,0-.159-.159.63.63,0,0,0-.238-.036h-.3v2.5H134.42v-7.891h1.308Z" transform="translate(-37.285 -275.534)" fill="#fafafa"/>
    <path id="Trazado_21898" data-name="Trazado 21898" d="M144.348,356.524a1.2,1.2,0,0,0-.9.325,1.573,1.573,0,0,0-.412.918H145.5a1.741,1.741,0,0,0-.065-.484,1.117,1.117,0,0,0-.217-.4,1.049,1.049,0,0,0-.361-.267,1.216,1.216,0,0,0-.506-.094m-.036-.947a2.656,2.656,0,0,1,.947.159,1.982,1.982,0,0,1,.744.484,2.179,2.179,0,0,1,.491.773,2.949,2.949,0,0,1,.173,1.048,1.212,1.212,0,0,1-.014.246.29.29,0,0,1-.051.152.17.17,0,0,1-.094.08.407.407,0,0,1-.145.022H143a1.828,1.828,0,0,0,.455,1.229,1.407,1.407,0,0,0,1.041.39,1.771,1.771,0,0,0,.549-.072,2.346,2.346,0,0,0,.4-.166c.116-.058.217-.116.3-.166a.5.5,0,0,1,.253-.072.218.218,0,0,1,.137.036.382.382,0,0,1,.1.087l.383.477a2.29,2.29,0,0,1-.491.426,2.538,2.538,0,0,1-.564.275,3.444,3.444,0,0,1-.6.145,4.236,4.236,0,0,1-.593.043,2.942,2.942,0,0,1-1.055-.188,2.3,2.3,0,0,1-.845-.556,2.643,2.643,0,0,1-.571-.91,3.532,3.532,0,0,1-.2-1.257,2.928,2.928,0,0,1,.181-1.048,2.456,2.456,0,0,1,1.344-1.431,2.661,2.661,0,0,1,1.1-.21" transform="translate(-39.307 -276.436)" fill="#fafafa"/>
    <path id="Trazado_21899" data-name="Trazado 21899" d="M151.8,360.592a1.423,1.423,0,0,1-1.091-.4,1.546,1.546,0,0,1-.383-1.106v-3.042h-.556a.27.27,0,0,1-.181-.072.278.278,0,0,1-.079-.21v-.52l.874-.145.275-1.489a.284.284,0,0,1,.1-.166.329.329,0,0,1,.2-.058h.679v1.713h1.431v.939h-1.431v2.948a.56.56,0,0,0,.13.4.436.436,0,0,0,.34.145.544.544,0,0,0,.2-.029.877.877,0,0,0,.145-.065c.043-.022.08-.043.108-.058a.159.159,0,0,1,.094-.029.133.133,0,0,1,.094.029,1.037,1.037,0,0,1,.08.087l.39.636a1.944,1.944,0,0,1-.658.361,2.515,2.515,0,0,1-.773.123" transform="translate(-41.471 -275.828)" fill="#fafafa"/>
    <path id="Trazado_21900" data-name="Trazado 21900" d="M157.4,360.217h-1.308v-5.449H157.4Zm.2-7.038a.684.684,0,0,1-.072.318.839.839,0,0,1-.181.26.872.872,0,0,1-.267.181.825.825,0,0,1-.332.065.815.815,0,0,1-.325-.065.733.733,0,0,1-.26-.181.984.984,0,0,1-.181-.26.783.783,0,0,1-.065-.318.852.852,0,0,1,.065-.332.833.833,0,0,1,.181-.267.83.83,0,0,1,.585-.238.878.878,0,0,1,.332.065.851.851,0,0,1,.267.173.832.832,0,0,1,.181.267.743.743,0,0,1,.072.332" transform="translate(-43.249 -275.54)" fill="#fafafa"/>
    <path id="Trazado_21901" data-name="Trazado 21901" d="M160.17,361.118V355.67h.8a.315.315,0,0,1,.332.238l.094.434a2.8,2.8,0,0,1,.347-.311,2.389,2.389,0,0,1,.383-.239,2.1,2.1,0,0,1,.441-.152,2.284,2.284,0,0,1,.513-.051,1.976,1.976,0,0,1,.795.152,1.629,1.629,0,0,1,.578.426,1.788,1.788,0,0,1,.347.658,2.8,2.8,0,0,1,.123.838v3.469H163.61v-3.469a1.175,1.175,0,0,0-.231-.773.867.867,0,0,0-.694-.275,1.374,1.374,0,0,0-.636.152,2.325,2.325,0,0,0-.564.419v3.938H160.17Z" transform="translate(-44.428 -276.442)" fill="#fafafa"/>
    <path id="Trazado_21902" data-name="Trazado 21902" d="M170.351,358.258a1.26,1.26,0,0,0,.426-.065.863.863,0,0,0,.3-.188.82.82,0,0,0,.181-.282.972.972,0,0,0,.058-.361.873.873,0,0,0-.238-.643,1.215,1.215,0,0,0-1.445,0,.862.862,0,0,0-.238.643,1.1,1.1,0,0,0,.058.354.82.82,0,0,0,.181.282.8.8,0,0,0,.3.188,1.246,1.246,0,0,0,.419.065m1.431,3.093a.379.379,0,0,0-.094-.267.662.662,0,0,0-.26-.159,2.335,2.335,0,0,0-.383-.087,3.213,3.213,0,0,0-.47-.029h-.513a2.308,2.308,0,0,1-.506-.058,1.224,1.224,0,0,0-.361.289.58.58,0,0,0-.137.383.5.5,0,0,0,.072.267.613.613,0,0,0,.231.217,1.261,1.261,0,0,0,.4.137,2.963,2.963,0,0,0,.614.051,3.245,3.245,0,0,0,.636-.058,1.491,1.491,0,0,0,.441-.159.624.624,0,0,0,.253-.238.634.634,0,0,0,.08-.3m-1.445-5.759a2.737,2.737,0,0,1,.658.072,2.391,2.391,0,0,1,.564.21h1.568v.491a.258.258,0,0,1-.065.188.338.338,0,0,1-.217.094l-.491.094a1.314,1.314,0,0,1,.079.289,1.554,1.554,0,0,1,.029.325,1.615,1.615,0,0,1-.159.73,1.75,1.75,0,0,1-.441.556,2.245,2.245,0,0,1-.679.354,2.881,2.881,0,0,1-.845.123,3.305,3.305,0,0,1-.6-.058.414.414,0,0,0-.253.347.268.268,0,0,0,.152.246,1.247,1.247,0,0,0,.4.108,4.3,4.3,0,0,0,.556.036c.2,0,.426.007.643.029a4.749,4.749,0,0,1,.643.094,1.941,1.941,0,0,1,.564.21,1.141,1.141,0,0,1,.4.39,1.2,1.2,0,0,1,.152.636,1.448,1.448,0,0,1-.181.7,1.775,1.775,0,0,1-.513.607,2.6,2.6,0,0,1-.824.426,3.552,3.552,0,0,1-1.12.159,4.273,4.273,0,0,1-1.077-.116,2.634,2.634,0,0,1-.759-.318,1.361,1.361,0,0,1-.448-.463,1.061,1.061,0,0,1-.152-.542.948.948,0,0,1,.231-.643,1.625,1.625,0,0,1,.65-.412.914.914,0,0,1-.325-.3.89.89,0,0,1-.123-.484.81.81,0,0,1,.043-.253.936.936,0,0,1,.13-.253,1.117,1.117,0,0,1,.217-.238,1.259,1.259,0,0,1,.318-.2,1.724,1.724,0,0,1-.65-.593,1.577,1.577,0,0,1-.238-.867,1.717,1.717,0,0,1,.159-.73,1.609,1.609,0,0,1,.455-.556,2.057,2.057,0,0,1,.687-.354,2.943,2.943,0,0,1,.86-.123" transform="translate(-46.58 -276.436)" fill="#fafafa"/>
    <path id="Trazado_21903" data-name="Trazado 21903" d="M184.869,356.457a3.5,3.5,0,0,0-.173-1.134,2.525,2.525,0,0,0-.484-.853,2.1,2.1,0,0,0-.759-.535,2.655,2.655,0,0,0-1.012-.188h-1.5v5.405h1.5a2.525,2.525,0,0,0,1.012-.188,2.039,2.039,0,0,0,.759-.535,2.393,2.393,0,0,0,.484-.853,3.5,3.5,0,0,0,.173-1.135m1.46.014a4.183,4.183,0,0,1-.282,1.554,3.474,3.474,0,0,1-.795,1.214,3.571,3.571,0,0,1-1.228.795,4.294,4.294,0,0,1-1.59.282H179.5V352.62h2.934a4.319,4.319,0,0,1,1.59.282,3.522,3.522,0,0,1,2.023,2.009,4.156,4.156,0,0,1,.282,1.554" transform="translate(-49.79 -275.618)" fill="#fafafa"/>
    <path id="Trazado_21904" data-name="Trazado 21904" d="M191.914,360.217H190.6v-5.449h1.315Zm.2-7.038a.684.684,0,0,1-.072.318.84.84,0,0,1-.181.26.969.969,0,0,1-.267.181.825.825,0,0,1-.332.065.757.757,0,0,1-.318-.065.732.732,0,0,1-.26-.181.823.823,0,0,1-.174-.26.783.783,0,0,1-.065-.318.852.852,0,0,1,.065-.332.946.946,0,0,1,.174-.267.907.907,0,0,1,.26-.173.808.808,0,0,1,.318-.065.878.878,0,0,1,.332.065.852.852,0,0,1,.267.173.833.833,0,0,1,.181.267.743.743,0,0,1,.072.332" transform="translate(-52.824 -275.54)" fill="#fafafa"/>
    <path id="Trazado_21905" data-name="Trazado 21905" d="M196.354,358.258a1.289,1.289,0,0,0,.426-.065.862.862,0,0,0,.3-.188.82.82,0,0,0,.181-.282.974.974,0,0,0,.058-.361.85.85,0,0,0-.246-.643,1.215,1.215,0,0,0-1.445,0,.862.862,0,0,0-.239.643,1.1,1.1,0,0,0,.058.354.726.726,0,0,0,.181.282.8.8,0,0,0,.3.188,1.26,1.26,0,0,0,.426.065m1.431,3.093a.414.414,0,0,0-.094-.267.661.661,0,0,0-.26-.159,2.334,2.334,0,0,0-.383-.087,3.212,3.212,0,0,0-.47-.029h-.513a2.308,2.308,0,0,1-.506-.058,1.224,1.224,0,0,0-.361.289.58.58,0,0,0-.137.383.5.5,0,0,0,.072.267.614.614,0,0,0,.231.217,1.262,1.262,0,0,0,.4.137,2.964,2.964,0,0,0,.614.051,3.113,3.113,0,0,0,.629-.058,1.49,1.49,0,0,0,.441-.159.624.624,0,0,0,.253-.238.634.634,0,0,0,.08-.3m-1.438-5.759a2.737,2.737,0,0,1,.658.072,2.391,2.391,0,0,1,.564.21h1.568v.491a.259.259,0,0,1-.065.188.338.338,0,0,1-.217.094l-.491.094a1.31,1.31,0,0,1,.079.289,1.552,1.552,0,0,1,.029.325,1.615,1.615,0,0,1-.159.73,1.676,1.676,0,0,1-.448.556,2.292,2.292,0,0,1-.672.354,2.882,2.882,0,0,1-.846.123,3.3,3.3,0,0,1-.6-.058.414.414,0,0,0-.253.347.268.268,0,0,0,.152.246,1.248,1.248,0,0,0,.4.108,4.332,4.332,0,0,0,.564.036c.209,0,.426.007.643.029a4.751,4.751,0,0,1,.643.094,1.82,1.82,0,0,1,.556.21,1.142,1.142,0,0,1,.4.39,1.2,1.2,0,0,1,.152.636,1.524,1.524,0,0,1-.173.7,1.859,1.859,0,0,1-.513.607,2.606,2.606,0,0,1-.824.426,3.553,3.553,0,0,1-1.12.159,4.272,4.272,0,0,1-1.077-.116,2.634,2.634,0,0,1-.759-.318,1.361,1.361,0,0,1-.448-.463,1.061,1.061,0,0,1-.152-.542.948.948,0,0,1,.231-.643,1.625,1.625,0,0,1,.65-.412.979.979,0,0,1-.325-.3.891.891,0,0,1-.123-.484.808.808,0,0,1,.043-.253.936.936,0,0,1,.13-.253,1.117,1.117,0,0,1,.217-.238,1.213,1.213,0,0,1,.311-.2,1.78,1.78,0,0,1-.65-.593,1.573,1.573,0,0,1-.231-.867,1.569,1.569,0,0,1,.614-1.286,2.058,2.058,0,0,1,.686-.354,2.994,2.994,0,0,1,.867-.123" transform="translate(-53.795 -276.436)" fill="#fafafa"/>
    <path id="Trazado_21906" data-name="Trazado 21906" d="M203.791,360.217h-1.308v-5.449h1.308Zm.2-7.038a.685.685,0,0,1-.072.318.842.842,0,0,1-.181.26.971.971,0,0,1-.267.181.825.825,0,0,1-.332.065.806.806,0,0,1-.318-.065.734.734,0,0,1-.26-.181.984.984,0,0,1-.181-.26.783.783,0,0,1-.065-.318.852.852,0,0,1,.065-.332.832.832,0,0,1,.181-.267.819.819,0,0,1,.26-.173.808.808,0,0,1,.318-.065.827.827,0,0,1,.332.065.945.945,0,0,1,.267.173.833.833,0,0,1,.181.267.744.744,0,0,1,.072.332" transform="translate(-56.117 -275.54)" fill="#fafafa"/>
    <path id="Trazado_21907" data-name="Trazado 21907" d="M208.154,360.592a1.423,1.423,0,0,1-1.091-.4,1.545,1.545,0,0,1-.383-1.106v-3.042h-.549a.27.27,0,0,1-.181-.072.277.277,0,0,1-.08-.21v-.52l.874-.145.275-1.489a.315.315,0,0,1,.094-.166.329.329,0,0,1,.2-.058h.679v1.713h1.431v.939h-1.431v2.948a.56.56,0,0,0,.13.4.436.436,0,0,0,.34.145.543.543,0,0,0,.2-.029.876.876,0,0,0,.145-.065c.043-.022.079-.043.108-.058a.159.159,0,0,1,.094-.029.133.133,0,0,1,.094.029,1.036,1.036,0,0,1,.079.087l.39.636a1.945,1.945,0,0,1-.658.361,2.516,2.516,0,0,1-.773.123" transform="translate(-57.104 -275.828)" fill="#fafafa"/>
    <path id="Trazado_21908" data-name="Trazado 21908" d="M214.01,360.293a2.076,2.076,0,0,0,.376-.036,1.179,1.179,0,0,0,.318-.108,1.491,1.491,0,0,0,.289-.181,2.228,2.228,0,0,0,.282-.253V358.8a5.165,5.165,0,0,0-.961.072,2.643,2.643,0,0,0-.614.181.86.86,0,0,0-.332.26.6.6,0,0,0-.1.325.577.577,0,0,0,.2.5.884.884,0,0,0,.535.152m2.558.817h-.593a.64.64,0,0,1-.289-.058.362.362,0,0,1-.159-.224l-.116-.383a4.956,4.956,0,0,1-.4.325,2.35,2.35,0,0,1-.412.239,2.323,2.323,0,0,1-.448.145,3,3,0,0,1-.535.051,1.988,1.988,0,0,1-.636-.094,1.4,1.4,0,0,1-.5-.282,1.192,1.192,0,0,1-.325-.462,1.647,1.647,0,0,1-.116-.643,1.229,1.229,0,0,1,.166-.614,1.525,1.525,0,0,1,.535-.542,3.575,3.575,0,0,1,1-.4,6.345,6.345,0,0,1,1.554-.159v-.318a1.224,1.224,0,0,0-.231-.817.826.826,0,0,0-.672-.267,1.574,1.574,0,0,0-.528.072,2.548,2.548,0,0,0-.369.166l-.289.166a.572.572,0,0,1-.289.072.367.367,0,0,1-.231-.072.475.475,0,0,1-.152-.166l-.238-.419a3.252,3.252,0,0,1,2.269-.86,2.111,2.111,0,0,1,.853.159,1.779,1.779,0,0,1,.636.434,1.986,1.986,0,0,1,.4.665,2.484,2.484,0,0,1,.137.853v3.44Z" transform="translate(-58.813 -276.433)" fill="#fafafa"/>
    <rect id="Rectángulo_1985" data-name="Rectángulo 1985" width="1.315" height="7.891" transform="translate(159.229 76.786)" fill="#fafafa"/>
  </g>
  <g id="THT_footer" data-name="THT footer" transform="translate(238.35 3.253)">
    <path id="Trazado_22887" data-name="Trazado 22887" d="M66.26,184.07H79.5v23.1h24.366v-23.1H117.1v60.194H103.865V218.3H79.5v25.965H66.26Z" transform="translate(-23.878 -183.974)" fill="#c8c5c5"/>
    <path id="Trazado_22888" data-name="Trazado 22888" d="M19.358,195.144H.69V184.016l41.947-.1v11.128l-10.047.1V244.21H19.352V195.144Z" transform="translate(-0.242 -183.92)" fill="#fafafa"/>
    <path id="Trazado_22889" data-name="Trazado 22889" d="M155.406,195.2H145.34V184.07h41.781V195.2H168.639v49.066H155.4V195.2Z" transform="translate(-52.383 -183.974)" fill="#fafafa"/>
    <g id="Grupo_4694" data-name="Grupo 4694" transform="translate(0 69.281)">
      <path id="Trazado_22890" data-name="Trazado 22890" d="M5.752,306.307a6.8,6.8,0,0,1-3.076-.633,4.48,4.48,0,0,1-1.925-1.816,6.334,6.334,0,0,1-.742-2.84C0,300.487-.01,299.912-.01,299.3s0-1.2.019-1.759a6.236,6.236,0,0,1,.755-2.833A4.473,4.473,0,0,1,2.7,292.883a6.732,6.732,0,0,1,3.057-.633,7.441,7.441,0,0,1,2.379.352,5.613,5.613,0,0,1,1.8.966A4.485,4.485,0,0,1,11.08,295a4.07,4.07,0,0,1,.428,1.778.337.337,0,0,1-.109.294.43.43,0,0,1-.3.115H9.244a.561.561,0,0,1-.352-.109.66.66,0,0,1-.2-.358,2.718,2.718,0,0,0-1.074-1.759,3.536,3.536,0,0,0-1.893-.467,2.954,2.954,0,0,0-2.091.729,3.358,3.358,0,0,0-.838,2.411q-.058,1.6,0,3.281a3.359,3.359,0,0,0,.838,2.411,2.933,2.933,0,0,0,2.091.729,3.558,3.558,0,0,0,1.906-.48,2.628,2.628,0,0,0,1.062-1.746.572.572,0,0,1,.2-.371.587.587,0,0,1,.352-.1H11.1a.431.431,0,0,1,.3.115.33.33,0,0,1,.109.294,4.091,4.091,0,0,1-.428,1.778,4.485,4.485,0,0,1-1.151,1.433,5.545,5.545,0,0,1-1.8.966,7.447,7.447,0,0,1-2.379.352Z" transform="translate(0.01 -292.25)" fill="#fafafa"/>
      <path id="Trazado_22891" data-name="Trazado 22891" d="M26.627,306.307a7.091,7.091,0,0,1-2.987-.576,4.305,4.305,0,0,1-1.951-1.778,6.272,6.272,0,0,1-.761-3c-.013-.556-.019-1.113-.019-1.656s.006-1.107.019-1.676a6.04,6.04,0,0,1,.78-2.967,4.6,4.6,0,0,1,1.983-1.8,6.7,6.7,0,0,1,2.935-.608,6.778,6.778,0,0,1,2.948.608,4.585,4.585,0,0,1,1.989,1.8,6.04,6.04,0,0,1,.78,2.967c.026.575.038,1.132.038,1.676s-.013,1.1-.038,1.656a6.312,6.312,0,0,1-.761,3,4.3,4.3,0,0,1-1.963,1.778,7.153,7.153,0,0,1-3,.576Zm0-2.245a2.9,2.9,0,0,0,2.072-.755,3.408,3.408,0,0,0,.857-2.449c.026-.576.038-1.1.038-1.592s-.013-1.011-.038-1.573a4.165,4.165,0,0,0-.422-1.842,2.39,2.39,0,0,0-1.023-1.036,3.559,3.559,0,0,0-2.948,0,2.325,2.325,0,0,0-1.023,1.036,4.165,4.165,0,0,0-.422,1.842q-.019.834-.019,1.573c0,.492,0,1.017.019,1.592a3.408,3.408,0,0,0,.857,2.449,2.876,2.876,0,0,0,2.047.755Z" transform="translate(-7.531 -292.25)" fill="#fafafa"/>
      <path id="Trazado_22892" data-name="Trazado 22892" d="M43.327,306.231a.459.459,0,0,1-.467-.467V293.056a.482.482,0,0,1,.134-.351.458.458,0,0,1,.333-.134h5.059a5.8,5.8,0,0,1,3.729,1.094,3.848,3.848,0,0,1,1.369,3.185,3.9,3.9,0,0,1-.71,2.4,3.976,3.976,0,0,1-1.906,1.388l2.852,4.976a.481.481,0,0,1,.058.217.392.392,0,0,1-.128.294.408.408,0,0,1-.281.115H51.59a.681.681,0,0,1-.505-.173,1.65,1.65,0,0,1-.275-.352l-2.52-4.624H45.578v4.688a.48.48,0,0,1-.128.333.443.443,0,0,1-.339.134H43.333Zm2.245-7.361h2.75a2.559,2.559,0,0,0,1.778-.537,1.956,1.956,0,0,0,.588-1.516,2.035,2.035,0,0,0-.576-1.535,2.486,2.486,0,0,0-1.784-.556h-2.75v4.138Z" transform="translate(-15.443 -292.365)" fill="#fafafa"/>
      <path id="Trazado_22893" data-name="Trazado 22893" d="M63.867,306.231a.459.459,0,0,1-.467-.467V293.056a.482.482,0,0,1,.134-.351.458.458,0,0,1,.333-.134H69.1a6.764,6.764,0,0,1,2.654.479,3.785,3.785,0,0,1,1.759,1.446,4.951,4.951,0,0,1,0,4.822,3.761,3.761,0,0,1-1.759,1.413,6.885,6.885,0,0,1-2.654.467h-2.91v4.566a.48.48,0,0,1-.128.332.443.443,0,0,1-.339.134Zm2.283-7.207H69a2.54,2.54,0,0,0,1.74-.537,2.021,2.021,0,0,0,.608-1.592,2.19,2.19,0,0,0-.569-1.573A2.358,2.358,0,0,0,69,294.725H66.15Z" transform="translate(-22.847 -292.365)" fill="#fafafa"/>
      <path id="Trazado_22894" data-name="Trazado 22894" d="M88.5,306.307a7.091,7.091,0,0,1-2.987-.576,4.305,4.305,0,0,1-1.951-1.778,6.272,6.272,0,0,1-.761-3c-.013-.556-.019-1.113-.019-1.656s.006-1.107.019-1.676a6.041,6.041,0,0,1,.78-2.967,4.6,4.6,0,0,1,1.983-1.8,6.7,6.7,0,0,1,2.935-.608,6.779,6.779,0,0,1,2.948.608,4.585,4.585,0,0,1,1.989,1.8,6.04,6.04,0,0,1,.78,2.967c.026.575.038,1.132.038,1.676s-.013,1.1-.038,1.656a6.312,6.312,0,0,1-.761,3,4.3,4.3,0,0,1-1.963,1.778,7.153,7.153,0,0,1-3,.576Zm0-2.245a2.9,2.9,0,0,0,2.072-.755,3.408,3.408,0,0,0,.857-2.449c.026-.576.038-1.1.038-1.592s-.013-1.011-.038-1.573A4.165,4.165,0,0,0,91,295.851a2.39,2.39,0,0,0-1.023-1.036,3.559,3.559,0,0,0-2.948,0,2.325,2.325,0,0,0-1.023,1.036,4.165,4.165,0,0,0-.422,1.842q-.019.834-.019,1.573c0,.492,0,1.017.019,1.592a3.408,3.408,0,0,0,.857,2.449,2.876,2.876,0,0,0,2.047.755Z" transform="translate(-29.832 -292.25)" fill="#fafafa"/>
      <path id="Trazado_22895" data-name="Trazado 22895" d="M105.187,306.231a.459.459,0,0,1-.467-.467V293.056a.482.482,0,0,1,.134-.351.458.458,0,0,1,.333-.134h5.059a5.8,5.8,0,0,1,3.729,1.094,3.847,3.847,0,0,1,1.369,3.185,3.9,3.9,0,0,1-.71,2.4,3.976,3.976,0,0,1-1.906,1.388l2.852,4.976a.481.481,0,0,1,.058.217.392.392,0,0,1-.128.294.408.408,0,0,1-.281.115H113.45a.681.681,0,0,1-.505-.173,1.65,1.65,0,0,1-.275-.352l-2.52-4.624h-2.712v4.688a.481.481,0,0,1-.128.333.443.443,0,0,1-.339.134h-1.778Zm2.251-7.361h2.75a2.559,2.559,0,0,0,1.778-.537,1.956,1.956,0,0,0,.588-1.516,2.035,2.035,0,0,0-.576-1.535,2.486,2.486,0,0,0-1.784-.556h-2.75v4.138Z" transform="translate(-37.741 -292.365)" fill="#fafafa"/>
      <path id="Trazado_22896" data-name="Trazado 22896" d="M123.719,306.231a.408.408,0,0,1-.281-.115.392.392,0,0,1-.128-.294.47.47,0,0,1,.038-.173l4.707-12.593a.733.733,0,0,1,.224-.339.673.673,0,0,1,.46-.147h2.13a.628.628,0,0,1,.448.147.956.956,0,0,1,.237.339l4.707,12.593a.883.883,0,0,1,.019.173.405.405,0,0,1-.115.294.372.372,0,0,1-.275.115h-1.7a.563.563,0,0,1-.4-.128.66.66,0,0,1-.166-.243l-.915-2.379h-5.8l-.915,2.379a.662.662,0,0,1-.166.243.553.553,0,0,1-.4.128Zm3.869-5h4.432l-2.226-6.031Z" transform="translate(-44.442 -292.365)" fill="#fafafa"/>
      <path id="Trazado_22897" data-name="Trazado 22897" d="M147.057,306.231a.459.459,0,0,1-.467-.467v-10.8h-3.613a.459.459,0,0,1-.467-.467v-1.445a.481.481,0,0,1,.134-.351.458.458,0,0,1,.333-.134h9.958a.461.461,0,0,1,.486.486V294.5a.459.459,0,0,1-.134.333.483.483,0,0,1-.352.134H149.34v10.8a.458.458,0,0,1-.134.332.482.482,0,0,1-.352.134Z" transform="translate(-51.363 -292.365)" fill="#fafafa"/>
      <path id="Trazado_22898" data-name="Trazado 22898" d="M163.127,306.231a.459.459,0,0,1-.467-.467V293.037a.459.459,0,0,1,.467-.467h1.835a.443.443,0,0,1,.339.134.48.48,0,0,1,.128.332v12.727a.48.48,0,0,1-.128.332.443.443,0,0,1-.339.134Z" transform="translate(-58.626 -292.365)" fill="#fafafa"/>
      <path id="Trazado_22899" data-name="Trazado 22899" d="M176.768,306.307a7.091,7.091,0,0,1-2.987-.576,4.3,4.3,0,0,1-1.951-1.778,6.271,6.271,0,0,1-.761-3c-.013-.556-.019-1.113-.019-1.656s.006-1.107.019-1.676a6.041,6.041,0,0,1,.78-2.967,4.605,4.605,0,0,1,1.983-1.8,6.7,6.7,0,0,1,2.935-.608,6.778,6.778,0,0,1,2.948.608,4.585,4.585,0,0,1,1.989,1.8,6.04,6.04,0,0,1,.78,2.967c.026.575.038,1.132.038,1.676s-.013,1.1-.038,1.656a6.313,6.313,0,0,1-.761,3,4.3,4.3,0,0,1-1.963,1.778,7.153,7.153,0,0,1-3,.576Zm0-2.245a2.9,2.9,0,0,0,2.072-.755,3.408,3.408,0,0,0,.857-2.449c.026-.576.038-1.1.038-1.592s-.013-1.011-.038-1.573a4.164,4.164,0,0,0-.422-1.842,2.391,2.391,0,0,0-1.023-1.036,3.559,3.559,0,0,0-2.948,0,2.324,2.324,0,0,0-1.023,1.036,4.163,4.163,0,0,0-.422,1.842q-.019.834-.019,1.573c0,.492,0,1.017.019,1.592a3.408,3.408,0,0,0,.857,2.449,2.876,2.876,0,0,0,2.047.755Z" transform="translate(-61.65 -292.25)" fill="#fafafa"/>
      <path id="Trazado_22900" data-name="Trazado 22900" d="M193.467,306.231a.459.459,0,0,1-.467-.467V293.056a.482.482,0,0,1,.134-.351.459.459,0,0,1,.333-.134h1.5a.563.563,0,0,1,.4.128,1.1,1.1,0,0,1,.166.185l5.622,8.743v-8.57a.5.5,0,0,1,.128-.352.443.443,0,0,1,.339-.134h1.637a.461.461,0,0,1,.486.486v12.688a.483.483,0,0,1-.134.352.46.46,0,0,1-.333.134h-1.522a.488.488,0,0,1-.39-.134.826.826,0,0,0-.179-.173l-5.6-8.551v8.391a.459.459,0,0,1-.134.333.483.483,0,0,1-.352.134h-1.637Z" transform="translate(-69.562 -292.365)" fill="#fafafa"/>
    </g>
  </g>
  <path id="Trazado_23172" data-name="Trazado 23172" d="M8.766-6.48A2.939,2.939,0,0,1,10.53-5.391,3.092,3.092,0,0,1,11.2-3.438,3.1,3.1,0,0,1,10.089-.927,4.67,4.67,0,0,1,7,0H1.116V-12.636H6.8a4.664,4.664,0,0,1,3.015.882A2.917,2.917,0,0,1,10.908-9.36a2.892,2.892,0,0,1-.585,1.854A3.026,3.026,0,0,1,8.766-6.48ZM4.194-7.524H6.21a1.785,1.785,0,0,0,1.161-.333,1.2,1.2,0,0,0,.4-.981,1.223,1.223,0,0,0-.4-.99A1.752,1.752,0,0,0,6.21-10.17H4.194Zm2.268,5.04a1.825,1.825,0,0,0,1.2-.351,1.246,1.246,0,0,0,.423-1.017A1.3,1.3,0,0,0,7.641-4.9a1.807,1.807,0,0,0-1.215-.378H4.194v2.79Zm16.776-7.56L16.938,4.77H13.626l2.3-5.112-4.086-9.7h3.438L17.6-3.762l2.3-6.282Z" transform="translate(187.948 56.172)" fill="#fafafa"/>
</svg>
