<?xml version="1.0" encoding="UTF-8"?> <svg xmlns="http://www.w3.org/2000/svg" width="122.951" height="66.26" viewBox="0 0 122.951 66.26"><g id="Grupo_3980" data-name="Grupo 3980" transform="translate(-113.454 -227.965)"><g id="logo_nav" data-name="logo nav" transform="translate(113.454 227.965)"><g id="Grupo_225" data-name="Grupo 225"><g id="Grupo_223" data-name="Grupo 223" transform="translate(0 34.759)"><g id="Grupo_222" data-name="Grupo 222"><g id="Grupo_221" data-name="Grupo 221"><path id="Trazado_3856" data-name="Trazado 3856" d="M72.062,1279.21H69.073v5.5a1.309,1.309,0,0,0,.344,1.006,1.579,1.579,0,0,0,1.005.357,14.827,14.827,0,0,0,1.64-.013v3.095q-3.518.4-4.96-.661t-1.442-3.783v-5.5h-2.3v-3.28h2.3v-3.854l3.413-1.032v4.886h2.989Z" transform="translate(-63.359 -1270.64)" fill="#fff"></path><path id="Trazado_3857" data-name="Trazado 3857" d="M93.112,1291.111q.688,2.487,3.73,2.487a3.489,3.489,0,0,0,2.963-1.323l2.751,1.587a6.561,6.561,0,0,1-5.767,2.831,7.116,7.116,0,0,1-5.265-1.984,6.978,6.978,0,0,1,5-11.983,6.308,6.308,0,0,1,4.8,2.01,6.984,6.984,0,0,1,1.891,4.974,8.024,8.024,0,0,1-.132,1.4Zm-.053-2.645H99.8a3.2,3.2,0,0,0-1.2-2.01,3.452,3.452,0,0,0-2.077-.662,3.591,3.591,0,0,0-2.275.7A3.351,3.351,0,0,0,93.059,1288.466Z" transform="translate(-79.42 -1277.805)" fill="#fff"></path><path id="Trazado_3858" data-name="Trazado 3858" d="M137.8,1274.917a4.791,4.791,0,0,1,3.585,1.455,5.525,5.525,0,0,1,1.415,4.021v8.122h-3.413v-7.7a2.712,2.712,0,0,0-.714-2.024,2.6,2.6,0,0,0-1.9-.7,2.808,2.808,0,0,0-2.116.82,3.41,3.41,0,0,0-.794,2.46v7.143H130.45V1270h3.412v6.772A4.406,4.406,0,0,1,137.8,1274.917Z" transform="translate(-104.516 -1269.996)" fill="#fff"></path><path id="Trazado_3859" data-name="Trazado 3859" d="M177.837,1283.683h3.413v13.227h-3.413v-1.482a4.4,4.4,0,0,1-3.941,1.852,4.787,4.787,0,0,1-3.584-1.455,5.52,5.52,0,0,1-1.415-4.021v-8.122h3.413v7.7a2.711,2.711,0,0,0,.714,2.024,2.6,2.6,0,0,0,1.9.7,2.806,2.806,0,0,0,2.116-.82,3.409,3.409,0,0,0,.794-2.46Z" transform="translate(-128.1 -1278.393)" fill="#fff"></path><path id="Trazado_3860" data-name="Trazado 3860" d="M210.022,1291.111q.688,2.487,3.73,2.487a3.49,3.49,0,0,0,2.963-1.323l2.751,1.587a6.561,6.561,0,0,1-5.767,2.831,7.116,7.116,0,0,1-5.264-1.984,6.978,6.978,0,0,1,5-11.983,6.308,6.308,0,0,1,4.8,2.01,6.982,6.982,0,0,1,1.891,4.974,7.985,7.985,0,0,1-.132,1.4Zm-.053-2.645h6.746a3.2,3.2,0,0,0-1.2-2.01,3.452,3.452,0,0,0-2.077-.662,3.59,3.59,0,0,0-2.275.7A3.351,3.351,0,0,0,209.969,1288.466Z" transform="translate(-151.138 -1277.805)" fill="#fff"></path><path id="Trazado_3861" data-name="Trazado 3861" d="M254.714,1282.726a4.788,4.788,0,0,1,3.584,1.455,5.525,5.525,0,0,1,1.416,4.021v8.122H256.3v-7.7a2.71,2.71,0,0,0-.714-2.023,2.6,2.6,0,0,0-1.9-.7,2.81,2.81,0,0,0-2.116.82,3.412,3.412,0,0,0-.794,2.46v7.143H247.36V1283.1h3.412v1.481A4.406,4.406,0,0,1,254.714,1282.726Z" transform="translate(-176.233 -1277.805)" fill="#fff"></path><path id="Trazado_3862" data-name="Trazado 3862" d="M291.5,1281.086h-2.989v5.5a1.307,1.307,0,0,0,.344,1.006,1.58,1.58,0,0,0,1.005.357,14.924,14.924,0,0,0,1.64-.013v3.094q-3.519.4-4.96-.661t-1.442-3.783v-5.5h-2.3v-3.28h2.3v-2.672l3.412-1.031v3.7H291.5Z" transform="translate(-197.975 -1272.516)" fill="#fff"></path><path id="Trazado_3863" data-name="Trazado 3863" d="M312.555,1291.111q.688,2.487,3.73,2.487a3.489,3.489,0,0,0,2.963-1.323l2.751,1.587a6.561,6.561,0,0,1-5.767,2.831,7.116,7.116,0,0,1-5.265-1.984,6.978,6.978,0,0,1,5-11.983,6.308,6.308,0,0,1,4.8,2.01,6.984,6.984,0,0,1,1.891,4.974,8.028,8.028,0,0,1-.132,1.4Zm-.053-2.645h6.746a3.2,3.2,0,0,0-1.2-2.01,3.452,3.452,0,0,0-2.077-.662,3.591,3.591,0,0,0-2.275.7A3.351,3.351,0,0,0,312.5,1288.466Z" transform="translate(-214.036 -1277.805)" fill="#fff"></path><path id="Trazado_3864" data-name="Trazado 3864" d="M354.878,1296.693a6.984,6.984,0,1,1,0-13.967,6.856,6.856,0,0,1,3.518.926,6.164,6.164,0,0,1,2.407,2.487l-2.936,1.72a3,3,0,0,0-1.2-1.3,3.5,3.5,0,0,0-1.812-.476,3.42,3.42,0,0,0-2.54,1.019,3.846,3.846,0,0,0,0,5.185,3.418,3.418,0,0,0,2.54,1.018,3.627,3.627,0,0,0,1.838-.463,2.91,2.91,0,0,0,1.2-1.283l2.963,1.693a6.621,6.621,0,0,1-2.46,2.5A6.783,6.783,0,0,1,354.878,1296.693Z" transform="translate(-237.906 -1277.805)" fill="#fff"></path></g></g></g><g id="Grupo_224" data-name="Grupo 224" transform="translate(49.295)"><path id="Trazado_3865" data-name="Trazado 3865" d="M200.041,1209.773a9.173,9.173,0,1,0,.015,0Zm0,15.247a6.08,6.08,0,1,1,6.075-6.084v.006A6.077,6.077,0,0,1,200.041,1225.02Z" transform="translate(-190.882 -1198.294)" fill="#fff"></path><path id="Trazado_3866" data-name="Trazado 3866" d="M220.818,1205.821a1.3,1.3,0,0,1-1.6-.7,12.092,12.092,0,0,0-13.475-6.978,1.322,1.322,0,0,1-1.542-.887l-.039-.126a1.315,1.315,0,0,1,1-1.675,14.845,14.845,0,0,1,16.564,8.531,1.317,1.317,0,0,1-.783,1.791Z" transform="translate(-198.994 -1189.326)" fill="#fff"></path><path id="Trazado_3867" data-name="Trazado 3867" d="M223.689,1194.984a1.31,1.31,0,0,1-1.612-.784,17.933,17.933,0,0,0-20.814-10.891,1.306,1.306,0,0,1-1.555-.879l-.04-.129a1.307,1.307,0,0,1,.932-1.661,20.724,20.724,0,0,1,4.805-.562,20.474,20.474,0,0,1,12.335,4.088,20.863,20.863,0,0,1,6.912,9.071,1.3,1.3,0,0,1-.835,1.707Z" transform="translate(-196.235 -1180.078)" fill="#fff"></path></g></g></g><path id="Trazado_6506" data-name="Trazado 6506" d="M1.492-4.925a.179.179,0,0,1-.138-.053.19.19,0,0,1-.049-.134v-5.324a.19.19,0,0,1,.049-.134.179.179,0,0,1,.138-.053h.431a.179.179,0,0,1,.138.053.19.19,0,0,1,.049.134v5.324a.19.19,0,0,1-.049.134.179.179,0,0,1-.138.053Zm2.117,0a.182.182,0,0,1-.134-.053.182.182,0,0,1-.053-.134V-8.971a.182.182,0,0,1,.053-.134.182.182,0,0,1,.134-.053h.383a.182.182,0,0,1,.134.053.182.182,0,0,1,.053.134v.358a1.661,1.661,0,0,1,.533-.452,1.72,1.72,0,0,1,.826-.175,1.662,1.662,0,0,1,.9.232A1.474,1.474,0,0,1,7-8.364a2.246,2.246,0,0,1,.191.957v2.3a.182.182,0,0,1-.053.134A.182.182,0,0,1,7-4.925H6.6a.182.182,0,0,1-.134-.053.182.182,0,0,1-.053-.134V-7.367a1.323,1.323,0,0,0-.277-.891,1.015,1.015,0,0,0-.814-.322,1.065,1.065,0,0,0-.81.322,1.243,1.243,0,0,0-.305.891v2.255a.182.182,0,0,1-.053.134.182.182,0,0,1-.134.053Zm6.342,0A1.4,1.4,0,0,1,9.21-5.1a1.012,1.012,0,0,1-.415-.5,2.022,2.022,0,0,1-.13-.761V-8.507H8.03A.182.182,0,0,1,7.9-8.56a.182.182,0,0,1-.053-.134v-.277A.182.182,0,0,1,7.9-9.105a.182.182,0,0,1,.134-.053h.635v-1.36a.182.182,0,0,1,.053-.134.182.182,0,0,1,.134-.053h.383a.182.182,0,0,1,.134.053.182.182,0,0,1,.053.134v1.36h1.01a.179.179,0,0,1,.138.053.19.19,0,0,1,.049.134v.277a.19.19,0,0,1-.049.134.179.179,0,0,1-.138.053H9.422v2.092a1.182,1.182,0,0,0,.13.6.494.494,0,0,0,.464.22h.5a.182.182,0,0,1,.134.053A.182.182,0,0,1,10.7-5.4v.293a.182.182,0,0,1-.053.134.182.182,0,0,1-.134.053Zm3.224.081a1.775,1.775,0,0,1-1.343-.517,2.13,2.13,0,0,1-.545-1.412q-.008-.106-.008-.273t.008-.273a2.382,2.382,0,0,1,.269-1.014A1.678,1.678,0,0,1,12.2-9a1.9,1.9,0,0,1,.965-.236,1.932,1.932,0,0,1,1.038.261,1.661,1.661,0,0,1,.639.741,2.677,2.677,0,0,1,.22,1.123v.138a.179.179,0,0,1-.053.138.19.19,0,0,1-.134.049H12.06v.073a1.7,1.7,0,0,0,.147.623,1.146,1.146,0,0,0,.379.468.969.969,0,0,0,.582.179,1.172,1.172,0,0,0,.488-.09,1.252,1.252,0,0,0,.318-.2.952.952,0,0,0,.163-.175.423.423,0,0,1,.114-.118.309.309,0,0,1,.13-.02h.4A.189.189,0,0,1,14.9-6a.137.137,0,0,1,.045.126.631.631,0,0,1-.13.3,1.6,1.6,0,0,1-.346.346,1.89,1.89,0,0,1-.554.281A2.349,2.349,0,0,1,13.175-4.843ZM12.06-7.351H14.29v-.024a1.51,1.51,0,0,0-.134-.651,1.083,1.083,0,0,0-.387-.452,1.067,1.067,0,0,0-.6-.167,1.048,1.048,0,0,0-.6.167,1.065,1.065,0,0,0-.379.452,1.55,1.55,0,0,0-.13.651Zm4.176,2.426a.182.182,0,0,1-.134-.053.182.182,0,0,1-.053-.134v-5.406a.182.182,0,0,1,.053-.134.182.182,0,0,1,.134-.053h.383a.179.179,0,0,1,.138.053.19.19,0,0,1,.049.134v5.406a.19.19,0,0,1-.049.134.179.179,0,0,1-.138.053Zm2.052,0a.182.182,0,0,1-.134-.053.182.182,0,0,1-.053-.134V-8.971a.182.182,0,0,1,.053-.134.182.182,0,0,1,.134-.053h.391a.182.182,0,0,1,.134.053.182.182,0,0,1,.053.134v3.859a.182.182,0,0,1-.053.134.182.182,0,0,1-.134.053Zm-.065-5.023A.182.182,0,0,1,18.088-10a.182.182,0,0,1-.053-.134v-.44a.2.2,0,0,1,.053-.138.175.175,0,0,1,.134-.057h.513a.188.188,0,0,1,.138.057.188.188,0,0,1,.057.138v.44a.175.175,0,0,1-.057.134.2.2,0,0,1-.138.053ZM21.8-3.134A2.4,2.4,0,0,1,20.9-3.28a1.61,1.61,0,0,1-.554-.354,1.356,1.356,0,0,1-.285-.415,1.131,1.131,0,0,1-.094-.33.159.159,0,0,1,.053-.138.193.193,0,0,1,.134-.057h.391a.215.215,0,0,1,.122.033.251.251,0,0,1,.081.138,1.616,1.616,0,0,0,.147.273.8.8,0,0,0,.3.261,1.214,1.214,0,0,0,.57.11,1.715,1.715,0,0,0,.643-.106.759.759,0,0,0,.395-.358,1.507,1.507,0,0,0,.134-.7v-.554a1.546,1.546,0,0,1-.513.419,1.7,1.7,0,0,1-.8.167,1.769,1.769,0,0,1-.782-.159,1.465,1.465,0,0,1-.533-.431A1.887,1.887,0,0,1,20-6.105a3.085,3.085,0,0,1-.118-.733q-.008-.228,0-.448A3.085,3.085,0,0,1,20-8.018a1.934,1.934,0,0,1,.309-.627,1.448,1.448,0,0,1,.533-.436,1.769,1.769,0,0,1,.782-.159,1.649,1.649,0,0,1,.81.179,1.662,1.662,0,0,1,.525.448v-.35a.2.2,0,0,1,.053-.138.175.175,0,0,1,.134-.057h.374a.188.188,0,0,1,.138.057.188.188,0,0,1,.057.138v3.948a2.419,2.419,0,0,1-.183.969,1.406,1.406,0,0,1-.6.668A2.235,2.235,0,0,1,21.8-3.134Zm-.016-2.41a1.061,1.061,0,0,0,.655-.187A1.117,1.117,0,0,0,22.81-6.2a1.617,1.617,0,0,0,.126-.578q.008-.114.008-.281t-.008-.281a1.617,1.617,0,0,0-.126-.578,1.117,1.117,0,0,0-.366-.472,1.061,1.061,0,0,0-.655-.187,1.06,1.06,0,0,0-.651.183,1.009,1.009,0,0,0-.35.48,2.208,2.208,0,0,0-.122.639q-.008.212,0,.431a2.208,2.208,0,0,0,.122.639,1.009,1.009,0,0,0,.35.48A1.06,1.06,0,0,0,21.788-5.543Zm4.836.7a1.775,1.775,0,0,1-1.343-.517,2.13,2.13,0,0,1-.545-1.412q-.008-.106-.008-.273t.008-.273A2.382,2.382,0,0,1,25-8.332,1.678,1.678,0,0,1,25.651-9a1.9,1.9,0,0,1,.965-.236,1.932,1.932,0,0,1,1.038.261,1.661,1.661,0,0,1,.639.741,2.677,2.677,0,0,1,.22,1.123v.138a.179.179,0,0,1-.053.138.19.19,0,0,1-.134.049H25.509v.073a1.7,1.7,0,0,0,.147.623,1.146,1.146,0,0,0,.379.468.969.969,0,0,0,.582.179,1.172,1.172,0,0,0,.488-.09,1.252,1.252,0,0,0,.318-.2.952.952,0,0,0,.163-.175.423.423,0,0,1,.114-.118.309.309,0,0,1,.13-.02h.4A.189.189,0,0,1,28.354-6a.137.137,0,0,1,.045.126.631.631,0,0,1-.13.3,1.6,1.6,0,0,1-.346.346,1.89,1.89,0,0,1-.554.281A2.349,2.349,0,0,1,26.624-4.843ZM25.509-7.351h2.231v-.024a1.51,1.51,0,0,0-.134-.651,1.083,1.083,0,0,0-.387-.452,1.067,1.067,0,0,0-.6-.167,1.048,1.048,0,0,0-.6.167,1.065,1.065,0,0,0-.379.452,1.55,1.55,0,0,0-.13.651Zm4.168,2.426a.182.182,0,0,1-.134-.053.182.182,0,0,1-.053-.134V-8.971a.182.182,0,0,1,.053-.134.182.182,0,0,1,.134-.053h.383a.182.182,0,0,1,.134.053.182.182,0,0,1,.053.134v.358a1.661,1.661,0,0,1,.533-.452,1.72,1.72,0,0,1,.826-.175,1.662,1.662,0,0,1,.9.232,1.474,1.474,0,0,1,.562.643,2.246,2.246,0,0,1,.191.957v2.3a.182.182,0,0,1-.053.134.182.182,0,0,1-.134.053h-.407a.182.182,0,0,1-.134-.053.182.182,0,0,1-.053-.134V-7.367a1.323,1.323,0,0,0-.277-.891,1.015,1.015,0,0,0-.814-.322,1.065,1.065,0,0,0-.81.322,1.243,1.243,0,0,0-.305.891v2.255a.182.182,0,0,1-.053.134.182.182,0,0,1-.134.053Zm6.456.081a2.089,2.089,0,0,1-1-.224,1.556,1.556,0,0,1-.647-.643,2.208,2.208,0,0,1-.244-1.005q-.008-.122-.008-.326t.008-.326a2.208,2.208,0,0,1,.244-1.005,1.556,1.556,0,0,1,.647-.643,2.089,2.089,0,0,1,1-.224,2.253,2.253,0,0,1,.81.13,1.722,1.722,0,0,1,.558.334,1.417,1.417,0,0,1,.33.44,1.171,1.171,0,0,1,.118.448.143.143,0,0,1-.049.13.205.205,0,0,1-.138.049H37.37a.178.178,0,0,1-.122-.037.388.388,0,0,1-.081-.126,1.083,1.083,0,0,0-.4-.562,1.134,1.134,0,0,0-.627-.163,1.082,1.082,0,0,0-.794.3,1.392,1.392,0,0,0-.33.969q-.008.293,0,.57a1.388,1.388,0,0,0,.33.973,1.09,1.09,0,0,0,.794.3,1.134,1.134,0,0,0,.627-.163,1.083,1.083,0,0,0,.4-.562.451.451,0,0,1,.081-.13.166.166,0,0,1,.122-.041h.391a.2.2,0,0,1,.138.053.153.153,0,0,1,.049.134,1.188,1.188,0,0,1-.073.35,1.344,1.344,0,0,1-.208.362,1.516,1.516,0,0,1-.354.326,1.8,1.8,0,0,1-.5.228A2.419,2.419,0,0,1,36.133-4.843ZM39.1-4.925a.182.182,0,0,1-.134-.053.182.182,0,0,1-.053-.134V-8.971a.182.182,0,0,1,.053-.134.182.182,0,0,1,.134-.053H39.5a.182.182,0,0,1,.134.053.182.182,0,0,1,.053.134v3.859a.182.182,0,0,1-.053.134.182.182,0,0,1-.134.053Zm-.065-5.023A.182.182,0,0,1,38.905-10a.182.182,0,0,1-.053-.134v-.44a.2.2,0,0,1,.053-.138.175.175,0,0,1,.134-.057h.513a.188.188,0,0,1,.138.057.188.188,0,0,1,.057.138v.44a.175.175,0,0,1-.057.134.2.2,0,0,1-.138.053Zm3.029,5.1a1.667,1.667,0,0,1-.741-.163,1.433,1.433,0,0,1-.537-.44,1.032,1.032,0,0,1-.2-.627,1.054,1.054,0,0,1,.456-.9,2.618,2.618,0,0,1,1.189-.44l1.213-.171v-.236a.817.817,0,0,0-.224-.611,1.013,1.013,0,0,0-.729-.22,1.067,1.067,0,0,0-.586.147.781.781,0,0,0-.318.374A.173.173,0,0,1,41.417-8H41.05a.166.166,0,0,1-.134-.053.189.189,0,0,1-.045-.126.684.684,0,0,1,.094-.3,1.237,1.237,0,0,1,.289-.35,1.665,1.665,0,0,1,.5-.289,2.072,2.072,0,0,1,.745-.118,2.339,2.339,0,0,1,.822.126,1.323,1.323,0,0,1,.525.338,1.294,1.294,0,0,1,.277.48,1.789,1.789,0,0,1,.085.545v2.638a.182.182,0,0,1-.053.134.182.182,0,0,1-.134.053h-.375a.179.179,0,0,1-.138-.053.19.19,0,0,1-.049-.134v-.35a1.5,1.5,0,0,1-.285.289,1.514,1.514,0,0,1-.448.236A2.02,2.02,0,0,1,42.068-4.843Zm.171-.611A1.314,1.314,0,0,0,42.85-5.6a1.013,1.013,0,0,0,.436-.444,1.613,1.613,0,0,0,.159-.757v-.228l-.944.138a2.179,2.179,0,0,0-.871.273.565.565,0,0,0-.293.484.548.548,0,0,0,.134.379.809.809,0,0,0,.342.224A1.275,1.275,0,0,0,42.239-5.454Zm6.83.611a1.775,1.775,0,0,1-1.343-.517,2.13,2.13,0,0,1-.545-1.412q-.008-.106-.008-.273t.008-.273a2.382,2.382,0,0,1,.269-1.014A1.678,1.678,0,0,1,48.1-9a1.9,1.9,0,0,1,.965-.236,1.932,1.932,0,0,1,1.038.261,1.661,1.661,0,0,1,.639.741,2.677,2.677,0,0,1,.22,1.123v.138a.179.179,0,0,1-.053.138.19.19,0,0,1-.134.049H47.954v.073a1.7,1.7,0,0,0,.147.623,1.146,1.146,0,0,0,.379.468.969.969,0,0,0,.582.179,1.172,1.172,0,0,0,.488-.09,1.252,1.252,0,0,0,.318-.2.952.952,0,0,0,.163-.175.424.424,0,0,1,.114-.118.309.309,0,0,1,.13-.02h.4A.189.189,0,0,1,50.8-6a.137.137,0,0,1,.045.126.631.631,0,0,1-.13.3,1.6,1.6,0,0,1-.346.346,1.89,1.89,0,0,1-.554.281A2.349,2.349,0,0,1,49.069-4.843ZM47.954-7.351h2.231v-.024a1.51,1.51,0,0,0-.134-.651,1.083,1.083,0,0,0-.387-.452,1.067,1.067,0,0,0-.6-.167,1.048,1.048,0,0,0-.6.167,1.065,1.065,0,0,0-.379.452,1.551,1.551,0,0,0-.13.651Zm4.168,2.426a.182.182,0,0,1-.134-.053.182.182,0,0,1-.053-.134V-8.971a.182.182,0,0,1,.053-.134.182.182,0,0,1,.134-.053H52.5a.182.182,0,0,1,.134.053.182.182,0,0,1,.053.134v.358a1.661,1.661,0,0,1,.533-.452,1.72,1.72,0,0,1,.826-.175,1.662,1.662,0,0,1,.9.232,1.474,1.474,0,0,1,.562.643,2.246,2.246,0,0,1,.191.957v2.3a.182.182,0,0,1-.053.134.182.182,0,0,1-.134.053H55.11a.182.182,0,0,1-.134-.053.182.182,0,0,1-.053-.134V-7.367a1.323,1.323,0,0,0-.277-.891,1.015,1.015,0,0,0-.814-.322,1.065,1.065,0,0,0-.81.322,1.243,1.243,0,0,0-.305.891v2.255a.182.182,0,0,1-.053.134.182.182,0,0,1-.134.053Zm7.034,0a.182.182,0,0,1-.134-.053.182.182,0,0,1-.053-.134v-5.316a.193.193,0,0,1,.053-.142.182.182,0,0,1,.134-.053h.407a.2.2,0,0,1,.147.049.349.349,0,0,1,.065.081L61.493-7.2l1.734-3.289a.39.39,0,0,1,.061-.081.185.185,0,0,1,.142-.049h.4a.192.192,0,0,1,.142.053.193.193,0,0,1,.053.142v5.316a.182.182,0,0,1-.053.134.192.192,0,0,1-.142.053h-.4a.182.182,0,0,1-.134-.053.182.182,0,0,1-.053-.134V-9.117l-1.36,2.654a.27.27,0,0,1-.1.126.281.281,0,0,1-.163.045h-.252a.258.258,0,0,1-.163-.045.364.364,0,0,1-.1-.126L59.743-9.117v4.005a.182.182,0,0,1-.053.134.182.182,0,0,1-.134.053Zm7.352.081a1.667,1.667,0,0,1-.741-.163,1.433,1.433,0,0,1-.537-.44,1.032,1.032,0,0,1-.2-.627,1.054,1.054,0,0,1,.456-.9,2.618,2.618,0,0,1,1.189-.44l1.213-.171v-.236a.817.817,0,0,0-.224-.611,1.013,1.013,0,0,0-.729-.22,1.067,1.067,0,0,0-.586.147.781.781,0,0,0-.318.374A.173.173,0,0,1,65.857-8H65.49a.166.166,0,0,1-.134-.053.189.189,0,0,1-.045-.126.684.684,0,0,1,.094-.3,1.237,1.237,0,0,1,.289-.35,1.665,1.665,0,0,1,.5-.289,2.072,2.072,0,0,1,.745-.118,2.339,2.339,0,0,1,.822.126,1.323,1.323,0,0,1,.525.338,1.294,1.294,0,0,1,.277.48,1.789,1.789,0,0,1,.085.545v2.638a.182.182,0,0,1-.053.134.182.182,0,0,1-.134.053h-.374a.179.179,0,0,1-.138-.053.19.19,0,0,1-.049-.134v-.35a1.5,1.5,0,0,1-.285.289,1.514,1.514,0,0,1-.448.236A2.02,2.02,0,0,1,66.508-4.843Zm.171-.611a1.314,1.314,0,0,0,.611-.142,1.013,1.013,0,0,0,.436-.444,1.614,1.614,0,0,0,.159-.757v-.228l-.944.138a2.179,2.179,0,0,0-.871.273.565.565,0,0,0-.293.484.548.548,0,0,0,.134.379.809.809,0,0,0,.342.224A1.275,1.275,0,0,0,66.679-5.454Zm3.33.529a.182.182,0,0,1-.134-.053.182.182,0,0,1-.053-.134V-8.963a.2.2,0,0,1,.053-.138.175.175,0,0,1,.134-.057h.374a.188.188,0,0,1,.138.057.188.188,0,0,1,.057.138V-8.6a1.034,1.034,0,0,1,.448-.415,1.573,1.573,0,0,1,.692-.138h.318a.182.182,0,0,1,.134.053.182.182,0,0,1,.053.134v.334a.169.169,0,0,1-.053.13.19.19,0,0,1-.134.049h-.488a.927.927,0,0,0-.692.256.949.949,0,0,0-.252.7v2.394a.175.175,0,0,1-.057.134.2.2,0,0,1-.138.053Zm3.1,0a.182.182,0,0,1-.134-.053.182.182,0,0,1-.053-.134v-5.406a.182.182,0,0,1,.053-.134.182.182,0,0,1,.134-.053h.383a.182.182,0,0,1,.134.053.182.182,0,0,1,.053.134v2.833l1.6-1.335a1.031,1.031,0,0,1,.151-.11.393.393,0,0,1,.175-.028h.431a.166.166,0,0,1,.122.049.166.166,0,0,1,.049.122.167.167,0,0,1-.02.073.238.238,0,0,1-.077.081L74.234-7.269l2.084,2.027q.1.081.1.147a.166.166,0,0,1-.049.122.166.166,0,0,1-.122.049h-.423a.422.422,0,0,1-.179-.028.721.721,0,0,1-.147-.11L73.68-6.8v1.685a.182.182,0,0,1-.053.134.182.182,0,0,1-.134.053Zm5.5.081a1.775,1.775,0,0,1-1.343-.517,2.13,2.13,0,0,1-.545-1.412q-.008-.106-.008-.273t.008-.273a2.382,2.382,0,0,1,.269-1.014A1.678,1.678,0,0,1,77.641-9a1.9,1.9,0,0,1,.965-.236,1.932,1.932,0,0,1,1.038.261,1.661,1.661,0,0,1,.639.741,2.677,2.677,0,0,1,.22,1.123v.138a.179.179,0,0,1-.053.138.19.19,0,0,1-.134.049H77.5v.073a1.7,1.7,0,0,0,.147.623,1.146,1.146,0,0,0,.379.468.969.969,0,0,0,.582.179,1.173,1.173,0,0,0,.488-.09,1.252,1.252,0,0,0,.317-.2.952.952,0,0,0,.163-.175.423.423,0,0,1,.114-.118.309.309,0,0,1,.13-.02h.4A.189.189,0,0,1,80.344-6a.137.137,0,0,1,.045.126.63.63,0,0,1-.13.3,1.6,1.6,0,0,1-.346.346,1.89,1.89,0,0,1-.554.281A2.349,2.349,0,0,1,78.614-4.843ZM77.5-7.351h2.231v-.024a1.51,1.51,0,0,0-.134-.651,1.083,1.083,0,0,0-.387-.452,1.067,1.067,0,0,0-.6-.167,1.048,1.048,0,0,0-.6.167,1.065,1.065,0,0,0-.379.452,1.551,1.551,0,0,0-.13.651Zm5.609,2.426a1.4,1.4,0,0,1-.741-.175,1.012,1.012,0,0,1-.415-.5,2.022,2.022,0,0,1-.13-.761V-8.507h-.635a.182.182,0,0,1-.134-.053A.182.182,0,0,1,81-8.694v-.277a.182.182,0,0,1,.053-.134.182.182,0,0,1,.134-.053h.635v-1.36a.182.182,0,0,1,.053-.134.182.182,0,0,1,.134-.053h.383a.182.182,0,0,1,.134.053.182.182,0,0,1,.053.134v1.36h1.01a.179.179,0,0,1,.138.053.19.19,0,0,1,.049.134v.277a.19.19,0,0,1-.049.134.179.179,0,0,1-.138.053h-1.01v2.092a1.182,1.182,0,0,0,.13.6.494.494,0,0,0,.464.22h.5a.182.182,0,0,1,.134.053.182.182,0,0,1,.053.134v.293a.182.182,0,0,1-.053.134.182.182,0,0,1-.134.053Zm1.718,0a.182.182,0,0,1-.134-.053.182.182,0,0,1-.053-.134V-8.971a.182.182,0,0,1,.053-.134.182.182,0,0,1,.134-.053h.391a.182.182,0,0,1,.134.053.182.182,0,0,1,.053.134v3.859a.182.182,0,0,1-.053.134.182.182,0,0,1-.134.053ZM84.76-9.948A.182.182,0,0,1,84.626-10a.182.182,0,0,1-.053-.134v-.44a.2.2,0,0,1,.053-.138.175.175,0,0,1,.134-.057h.513a.188.188,0,0,1,.138.057.188.188,0,0,1,.057.138v.44a.175.175,0,0,1-.057.134.2.2,0,0,1-.138.053Zm2.109,5.023a.182.182,0,0,1-.134-.053.182.182,0,0,1-.053-.134V-8.971a.182.182,0,0,1,.053-.134.182.182,0,0,1,.134-.053h.383a.182.182,0,0,1,.134.053.182.182,0,0,1,.053.134v.358a1.661,1.661,0,0,1,.533-.452,1.72,1.72,0,0,1,.826-.175,1.662,1.662,0,0,1,.9.232,1.474,1.474,0,0,1,.562.643,2.246,2.246,0,0,1,.191.957v2.3a.182.182,0,0,1-.053.134.182.182,0,0,1-.134.053h-.407a.182.182,0,0,1-.134-.053.182.182,0,0,1-.053-.134V-7.367a1.323,1.323,0,0,0-.277-.891,1.015,1.015,0,0,0-.814-.322,1.065,1.065,0,0,0-.81.322,1.243,1.243,0,0,0-.305.891v2.255a.182.182,0,0,1-.053.134.182.182,0,0,1-.134.053Zm6.48,1.791a2.4,2.4,0,0,1-.908-.147,1.61,1.61,0,0,1-.554-.354,1.356,1.356,0,0,1-.285-.415,1.131,1.131,0,0,1-.094-.33.159.159,0,0,1,.053-.138.193.193,0,0,1,.134-.057h.391a.215.215,0,0,1,.122.033.251.251,0,0,1,.081.138,1.615,1.615,0,0,0,.147.273.8.8,0,0,0,.3.261,1.214,1.214,0,0,0,.57.11,1.714,1.714,0,0,0,.643-.106.759.759,0,0,0,.395-.358,1.507,1.507,0,0,0,.134-.7v-.554a1.546,1.546,0,0,1-.513.419,1.7,1.7,0,0,1-.8.167,1.769,1.769,0,0,1-.782-.159,1.465,1.465,0,0,1-.533-.431,1.888,1.888,0,0,1-.309-.623,3.087,3.087,0,0,1-.118-.733q-.008-.228,0-.448a3.087,3.087,0,0,1,.118-.733,1.935,1.935,0,0,1,.309-.627,1.447,1.447,0,0,1,.533-.436,1.769,1.769,0,0,1,.782-.159,1.649,1.649,0,0,1,.81.179,1.663,1.663,0,0,1,.525.448v-.35a.2.2,0,0,1,.053-.138.175.175,0,0,1,.134-.057h.374a.188.188,0,0,1,.138.057.188.188,0,0,1,.057.138v3.948a2.419,2.419,0,0,1-.183.969,1.406,1.406,0,0,1-.6.668A2.235,2.235,0,0,1,93.349-3.134Zm-.016-2.41a1.061,1.061,0,0,0,.655-.187,1.117,1.117,0,0,0,.366-.472,1.617,1.617,0,0,0,.126-.578q.008-.114.008-.281t-.008-.281a1.617,1.617,0,0,0-.126-.578,1.117,1.117,0,0,0-.366-.472,1.061,1.061,0,0,0-.655-.187,1.06,1.06,0,0,0-.651.183,1.009,1.009,0,0,0-.35.48,2.208,2.208,0,0,0-.122.639q-.008.212,0,.431a2.208,2.208,0,0,0,.122.639,1.009,1.009,0,0,0,.35.48A1.06,1.06,0,0,0,93.333-5.543Zm5.43.619a.179.179,0,0,1-.138-.053.19.19,0,0,1-.049-.134v-5.316a.2.2,0,0,1,.049-.142.179.179,0,0,1,.138-.053h1.848a3.078,3.078,0,0,1,1.351.252,1.572,1.572,0,0,1,.749.745,2.86,2.86,0,0,1,.244,1.209q.008.366.008.643t-.008.635a3.073,3.073,0,0,1-.248,1.242,1.5,1.5,0,0,1-.733.733,3.083,3.083,0,0,1-1.323.24Zm.611-.692h1.237a2.158,2.158,0,0,0,.9-.155.952.952,0,0,0,.484-.5,2.357,2.357,0,0,0,.159-.9q.016-.244.016-.427v-.366q0-.183-.016-.419a1.7,1.7,0,0,0-.374-1.168,1.607,1.607,0,0,0-1.2-.379h-1.2Zm4.893.692a.182.182,0,0,1-.134-.053.182.182,0,0,1-.053-.134V-8.971a.182.182,0,0,1,.053-.134.182.182,0,0,1,.134-.053h.391a.182.182,0,0,1,.134.053.182.182,0,0,1,.053.134v3.859a.182.182,0,0,1-.053.134.182.182,0,0,1-.134.053ZM104.2-9.948a.182.182,0,0,1-.134-.053.182.182,0,0,1-.053-.134v-.44a.2.2,0,0,1,.053-.138.175.175,0,0,1,.134-.057h.513a.188.188,0,0,1,.138.057.188.188,0,0,1,.057.138v.44a.175.175,0,0,1-.057.134.2.2,0,0,1-.138.053Zm3.582,6.814a2.4,2.4,0,0,1-.908-.147,1.61,1.61,0,0,1-.554-.354,1.355,1.355,0,0,1-.285-.415,1.132,1.132,0,0,1-.094-.33A.159.159,0,0,1,106-4.518a.193.193,0,0,1,.134-.057h.391a.215.215,0,0,1,.122.033.251.251,0,0,1,.081.138,1.617,1.617,0,0,0,.147.273.8.8,0,0,0,.3.261,1.214,1.214,0,0,0,.57.11,1.714,1.714,0,0,0,.643-.106.759.759,0,0,0,.395-.358,1.507,1.507,0,0,0,.134-.7v-.554a1.546,1.546,0,0,1-.513.419,1.7,1.7,0,0,1-.8.167,1.769,1.769,0,0,1-.782-.159,1.465,1.465,0,0,1-.533-.431,1.887,1.887,0,0,1-.309-.623,3.085,3.085,0,0,1-.118-.733q-.008-.228,0-.448a3.085,3.085,0,0,1,.118-.733,1.934,1.934,0,0,1,.309-.627,1.448,1.448,0,0,1,.533-.436,1.769,1.769,0,0,1,.782-.159,1.649,1.649,0,0,1,.81.179,1.662,1.662,0,0,1,.525.448v-.35a.2.2,0,0,1,.053-.138.175.175,0,0,1,.134-.057h.374a.188.188,0,0,1,.138.057.189.189,0,0,1,.057.138v3.948a2.419,2.419,0,0,1-.183.969,1.406,1.406,0,0,1-.6.668A2.235,2.235,0,0,1,107.784-3.134Zm-.016-2.41a1.061,1.061,0,0,0,.655-.187,1.117,1.117,0,0,0,.366-.472,1.617,1.617,0,0,0,.126-.578q.008-.114.008-.281t-.008-.281a1.617,1.617,0,0,0-.126-.578,1.117,1.117,0,0,0-.366-.472,1.061,1.061,0,0,0-.655-.187,1.06,1.06,0,0,0-.651.183,1.009,1.009,0,0,0-.35.48,2.207,2.207,0,0,0-.122.639q-.008.212,0,.431a2.207,2.207,0,0,0,.122.639,1.009,1.009,0,0,0,.35.48A1.06,1.06,0,0,0,107.767-5.543Zm3.33.619a.182.182,0,0,1-.134-.053.182.182,0,0,1-.053-.134V-8.971a.182.182,0,0,1,.053-.134.182.182,0,0,1,.134-.053h.391a.182.182,0,0,1,.134.053.182.182,0,0,1,.053.134v3.859a.182.182,0,0,1-.053.134.182.182,0,0,1-.134.053Zm-.065-5.023A.182.182,0,0,1,110.9-10a.182.182,0,0,1-.053-.134v-.44a.2.2,0,0,1,.053-.138.175.175,0,0,1,.134-.057h.513a.188.188,0,0,1,.138.057.189.189,0,0,1,.057.138v.44a.175.175,0,0,1-.057.134.2.2,0,0,1-.138.053Zm3.5,5.023a1.4,1.4,0,0,1-.741-.175,1.012,1.012,0,0,1-.415-.5,2.022,2.022,0,0,1-.13-.761V-8.507h-.635a.182.182,0,0,1-.134-.053.182.182,0,0,1-.053-.134v-.277a.182.182,0,0,1,.053-.134.182.182,0,0,1,.134-.053h.635v-1.36a.182.182,0,0,1,.053-.134.182.182,0,0,1,.134-.053h.383a.182.182,0,0,1,.134.053.182.182,0,0,1,.053.134v1.36h1.01a.179.179,0,0,1,.138.053.19.19,0,0,1,.049.134v.277a.19.19,0,0,1-.049.134.179.179,0,0,1-.138.053H114v2.092a1.182,1.182,0,0,0,.13.6.494.494,0,0,0,.464.22h.5a.182.182,0,0,1,.134.053.182.182,0,0,1,.053.134v.293a.182.182,0,0,1-.053.134.182.182,0,0,1-.134.053Zm2.711.081a1.667,1.667,0,0,1-.741-.163,1.433,1.433,0,0,1-.537-.44,1.032,1.032,0,0,1-.2-.627,1.054,1.054,0,0,1,.456-.9,2.618,2.618,0,0,1,1.189-.44l1.213-.171v-.236a.817.817,0,0,0-.224-.611,1.013,1.013,0,0,0-.729-.22,1.067,1.067,0,0,0-.586.147.781.781,0,0,0-.318.374.173.173,0,0,1-.171.122h-.366a.166.166,0,0,1-.134-.053.189.189,0,0,1-.045-.126.684.684,0,0,1,.094-.3,1.237,1.237,0,0,1,.289-.35,1.665,1.665,0,0,1,.5-.289,2.072,2.072,0,0,1,.745-.118,2.339,2.339,0,0,1,.822.126,1.323,1.323,0,0,1,.525.338,1.294,1.294,0,0,1,.277.48,1.789,1.789,0,0,1,.085.545v2.638a.182.182,0,0,1-.053.134.182.182,0,0,1-.134.053h-.374a.179.179,0,0,1-.138-.053.19.19,0,0,1-.049-.134v-.35a1.5,1.5,0,0,1-.285.289,1.514,1.514,0,0,1-.448.236A2.02,2.02,0,0,1,117.244-4.843Zm.171-.611a1.314,1.314,0,0,0,.611-.142,1.013,1.013,0,0,0,.436-.444,1.613,1.613,0,0,0,.159-.757v-.228l-.944.138a2.179,2.179,0,0,0-.871.273.565.565,0,0,0-.293.484.548.548,0,0,0,.134.379.809.809,0,0,0,.342.224A1.275,1.275,0,0,0,117.415-5.454Zm3.338.529a.182.182,0,0,1-.134-.053.182.182,0,0,1-.053-.134v-5.406a.182.182,0,0,1,.053-.134.182.182,0,0,1,.134-.053h.383a.179.179,0,0,1,.138.053.19.19,0,0,1,.049.134v5.406a.19.19,0,0,1-.049.134.179.179,0,0,1-.138.053Z" transform="translate(113.997 297.358)" fill="#fff"></path></g></svg> 