<?xml version="1.0" encoding="UTF-8"?>
<svg id="Capa_2" data-name="Capa 2" xmlns="http://www.w3.org/2000/svg" xmlns:xlink="http://www.w3.org/1999/xlink" viewBox="0 0 79.12 65.31">
  <defs>
    <style>
      .cls-1 {
        opacity: .3;
      }

      .cls-2 {
        fill: none;
      }

      .cls-3 {
        clip-path: url(#clippath-1);
      }

      .cls-4 {
        opacity: .7;
      }

      .cls-5 {
        fill: #0dcc67;
      }

      .cls-6 {
        clip-path: url(#clippath);
      }
    </style>
    <clipPath id="clippath">
      <rect class="cls-2" x="2.79" y="19.1" width="56.22" height="44.83"/>
    </clipPath>
    <clipPath id="clippath-1">
      <rect class="cls-2" width="79.12" height="62.97"/>
    </clipPath>
  </defs>
  <g id="Capa_1-2" data-name="Capa 1">
    <g>
      <g class="cls-4">
        <g class="cls-6">
          <path class="cls-5" d="M54.65,63.88c-2.29.34-4.48-1.1-5.05-3.34-4.72-19.09-22.18-32.38-41.96-31.93-2.37.09-4.43-1.61-4.75-3.95l-.06-.45c-.31-2.49,1.47-4.75,3.97-5.06.15-.02.31-.03.46-.03,24.29-.63,45.78,15.65,51.61,39.08.63,2.44-.86,4.91-3.31,5.53-.15.04-.3.07-.46.09l-.45.06Z"/>
        </g>
      </g>
      <path class="cls-5" d="M36.82,65.26c-1.41.25-2.78-.6-3.16-1.97-3.22-11.67-14.19-19.55-26.36-18.94-1.46.1-2.75-.92-2.99-2.35l-.05-.28c-.23-1.53.82-2.95,2.36-3.18.09-.02.19-.02.28-.03,14.94-.8,28.43,8.86,32.42,23.18.43,1.49-.44,3.04-1.94,3.46-.09.03-.18.04-.28.06l-.28.05Z"/>
      <g class="cls-1">
        <g class="cls-3">
          <path class="cls-5" d="M74.69,62.94c-2.39.3-4.59-1.3-5.05-3.64C63.47,29.07,35.88,7.89,4.9,9.6c-2.39.14-4.49-1.58-4.8-3.94l-.06-.47C-.29,2.73,1.46.47,3.94.15c.1-.01.19-.02.29-.03C40.07-1.93,72.01,22.6,79.04,57.58c.47,2.44-1.14,4.8-3.6,5.26-.09.02-.19.03-.28.04l-.46.05Z"/>
        </g>
      </g>
    </g>
  </g>
</svg>